<svg id="Layer_1" height="512" viewBox="0 0 512 512" width="512" xmlns="http://www.w3.org/2000/svg" data-name="Layer 1"><path d="m241.4 206.22-.01 57.53h29.22v-57.63z" fill="#c5a536"/><path d="m339 144v112.17l24.5-28.71 24.5 28.71v-139.17z" fill="#e75163"/><path d="m124 117v139.17l24.5-28.71 24.5 28.71v-112.17z" fill="#e75163"/><path d="m326 57v16h58v7.14c0 28.33-22.34 51.86-49.27 51.86h-7.73l-2 16h9.73c1.59 0 3.17.05 4.74-.07 19.6-1.46 36.72-11.865 47.79-27.355a69.268 69.268 0 0 0 12.74-40.435v-23.14z" fill="#c5a536"/><path d="m112 80.14a69.439 69.439 0 0 0 12.74 40.49 64.721 64.721 0 0 0 47.855 27.3c1.57.12 3.085.07 4.675.07h8.73l-1-16h-7.73c-26.93 0-49.27-23.53-49.27-51.86v-7.14h58v-16h-74z" fill="#c5a536"/><path d="m184 40v95.06a79.1 79.1 0 0 0 1.28 13.16 75.7 75.7 0 0 0 19.89 39.67 70.455 70.455 0 0 0 36.185 20.33 69.539 69.539 0 0 0 14.452 1.51 68.131 68.131 0 0 0 14.792-1.61c28.3-6.24 50.585-30.03 55.965-59.91a75.993 75.993 0 0 0 1.436-13.49v-94.72z" fill="#f9d438"/><path d="m337.98 18.66a12.471 12.471 0 0 0 -8.84-3.66h-146.28a12.5 12.5 0 1 0 0 25h146.28a12.5 12.5 0 0 0 8.84-21.34z" fill="#c5a536"/><path d="m224 263v22.5.5h64v-.5-22.5z" fill="#6d7486"/><path d="m296.85 286h-81.7a11.857 11.857 0 0 0 -12.15 11.68v12.32h106v-12.32a11.857 11.857 0 0 0 -12.15-11.68z" fill="#4a5160"/><path d="m323 416h115v81h-115z" fill="#f0cd7c"/><path d="m189.37 377h-115.37v120h114.89z" fill="#ea7288"/><path d="m189 310h134v187h-134z" fill="#71c2ff"/><path d="m235.17 187.89a75.7 75.7 0 0 1 -19.89-39.67 79.1 79.1 0 0 1 -1.28-13.16v-95.06h-30v95.06a79.1 79.1 0 0 0 1.28 13.16 75.7 75.7 0 0 0 19.89 39.67 70.455 70.455 0 0 0 36.185 20.33 69.539 69.539 0 0 0 14.452 1.51 68.131 68.131 0 0 0 14.792-1.61c.054-.012.107-.027.161-.039a70.488 70.488 0 0 1 -35.59-20.191z" fill="#ddbc33"/><path d="m204.02 36.34a12.5 12.5 0 0 1 8.84-21.34h-30a12.5 12.5 0 1 0 0 25h30a12.471 12.471 0 0 1 -8.84-3.66z" fill="#ad8c31"/><path d="m189 310h30v187h-30z" fill="#5fafd6"/><path d="m224 263v23h30v-.5-22.5z" fill="#8d94a3"/><path d="m215.15 286a11.857 11.857 0 0 0 -12.15 11.68v12.32h30v-12.32a11.857 11.857 0 0 1 12.15-11.68z" fill="#656e7f"/><path d="m184 96h144v26h-144z" fill="#e75163"/><path d="m297.18 96.18-28.46-4.14-12.72-25.78-12.72 25.78-28.46 4.14 20.59 20.06-4.86 28.34 25.45-13.38 25.45 13.38-4.86-28.34z" fill="#71c2ff"/><g fill="#284268"><path d="m216 473.472a6 6 0 0 0 6-6v-50.614a6 6 0 1 0 -12 0v50.614a6 6 0 0 0 6 6z"/><path d="m216 374.119a6 6 0 0 0 6-6v-27.261a6 6 0 1 0 -12 0v27.261a6 6 0 0 0 6 6z"/><path d="m216 400.472a6 6 0 0 0 6-6v-4.806a6 6 0 1 0 -12 0v4.806a6 6 0 0 0 6 6z"/><path d="m74.156 503h363.688a6.135 6.135 0 0 0 6.156-6v-80.988a6.146 6.146 0 0 0 -6.156-6.012h-108.844v-99.932a6.086 6.086 0 0 0 -6.068-6.068h-7.932v-6.321a17.877 17.877 0 0 0 -18.148-17.679h-2.852v-17.25c0-3.313-3.061-5.75-6.375-5.75h-10.625v-44.268c26-7.813 47.3-30.732 54.209-58.732h1.791v102.168a6.254 6.254 0 0 0 10.955 3.853l19.5-23.213 19.47 23.213a6.029 6.029 0 0 0 4.616 2.147 7.362 7.362 0 0 0 2.278-.361 6.217 6.217 0 0 0 4.181-5.639v-133.942c8-11.962 12-26.463 12-42.086v-23.61a5.4 5.4 0 0 0 -5.736-5.53h-66.264v-5.577a18.388 18.388 0 0 0 13.82-17.923 18.676 18.676 0 0 0 -18.68-18.5h-146.28a18.676 18.676 0 0 0 -18.68 18.5 18.389 18.389 0 0 0 13.82 17.923v5.577h-66.264a5.4 5.4 0 0 0 -5.736 5.53v23.61c0 15.623 4 30.124 12 42.086v133.942a6.239 6.239 0 0 0 10.934 3.853l19.5-23.213 19.466 23.213a6.028 6.028 0 0 0 4.615 2.147 7.444 7.444 0 0 0 2.292-.361 6.23 6.23 0 0 0 4.193-5.639v-102.168h1.586c6.672 29 27.414 51.161 54.414 58.86v44.14h-10.625c-3.314 0-6.375 2.437-6.375 5.75v17.25h-2.852a17.877 17.877 0 0 0 -18.148 17.679v6.321h-8.107a5.893 5.893 0 0 0 -5.893 5.893v61.107h-108.844a5.885 5.885 0 0 0 -6.156 5.7v120.3a6.135 6.135 0 0 0 6.156 6zm254.844-81h103v69h-103zm-7-306h-36.313l14.363-14h21.95zm0-26h-27.306l-21.986-3.318-11.328-23.015a5.994 5.994 0 0 0 -10.76-.046l-11.328 23.068-21.986 3.311h-27.306v-44h132zm-51.326 27.258 2.805 16.354-14.687-7.721a6 6 0 0 0 -5.584 0l-14.687 7.721 2.805-16.354a6 6 0 0 0 -1.725-5.31l-11.882-11.582 16.42-2.387a6 6 0 0 0 4.518-3.282l7.343-14.879 7.343 14.882a6 6 0 0 0 4.518 3.282l16.42 2.387-11.881 11.579a6 6 0 0 0 -1.726 5.31zm-44.361-1.258h-36.313v-14h21.95zm155.687 123.659-13.664-16.049a6.231 6.231 0 0 0 -4.711-2.147 6.62 6.62 0 0 0 -4.892 2.147l-13.733 16.049v-86.272a71.919 71.919 0 0 0 37-17.31zm12-176.659v17.14c0 34.233-26.441 61.86-59.266 61.86h-1.5c.149-1 .249-3 .313-4h1.185c30.235 0 55.268-26.219 55.268-57.86v-6.909a6.589 6.589 0 0 0 -6.438-6.231h-49.562v-4zm-60 63v-47h44v1.14c0 25.024-19.65 45.86-43.266 45.86zm-167 113.659-13.677-16.049a6.249 6.249 0 0 0 -4.718-2.147 6.6 6.6 0 0 0 -4.882 2.147l-13.723 16.049v-103.582a71.919 71.919 0 0 0 37 17.31zm10.266-97.659c-32.825 0-59.266-27.627-59.266-61.86v-17.14h60v4h-49.563a6.588 6.588 0 0 0 -6.437 6.231v6.909c0 31.641 25.033 57.86 55.266 57.86h1.154c.046 1 .13 3 .262 4zm.734-63v47h-.734c-23.616 0-43.266-20.836-43.266-45.86v-1.14zm-1.64-51.5a6.508 6.508 0 0 1 6.5-6.5h146.28a6.5 6.5 0 0 1 0 13h-146.28a6.508 6.508 0 0 1 -6.5-6.5zm13.64 107.565v-7.065h37.351l-2.712 15.69a5.9 5.9 0 0 0 2.387 5.806 5.991 5.991 0 0 0 6.318.426l22.656-11.922 22.656 11.9a6.008 6.008 0 0 0 6.318-.463 5.8 5.8 0 0 0 2.387-5.745l-2.712-15.692h37.351v6.667c-1 38.083-30.187 69.065-66.166 69.065-36.103 0-65.834-30.804-65.834-68.667zm75 80.128v41.807h-18v-41.756a85.166 85.166 0 0 0 8.834.488 82.106 82.106 0 0 0 9.166-.539zm-35 53.807h52v11h-52zm-21 28.679a5.871 5.871 0 0 1 6.148-5.679h81.7a5.871 5.871 0 0 1 6.152 5.679v6.321h-94zm-129 85.321h103v7a6 6 0 0 0 12 0v-74h122v175h-122v-61a6 6 0 0 0 -12 0v61h-103z"/></g></svg>