<?xml version="1.0" encoding="iso-8859-1"?>
<!-- Generator: Adobe Illustrator 19.0.0, SVG Export Plug-In . SVG Version: 6.00 Build 0)  -->
<svg version="1.1" id="Capa_1" xmlns="http://www.w3.org/2000/svg" xmlns:xlink="http://www.w3.org/1999/xlink" x="0px" y="0px"
	 viewBox="0 0 512 512" style="enable-background:new 0 0 512 512;" xml:space="preserve">
<polygon style="fill:#FFDAAA;" points="214.37,282.687 239.148,282.687 239.148,319.217 272.852,319.217 272.852,282.687 
	297.63,282.687 297.63,319.217 317.803,319.217 317.803,207.531 194.197,207.531 194.197,319.217 214.37,319.217 "/>
<rect x="194.2" y="207.53" style="fill:#FF9478;" width="30.591" height="111.69"/>
<rect x="171.95" y="360.91" style="fill:#FFDAAA;" width="168.1" height="101.78"/>
<polygon style="fill:#FF9478;" points="315.836,462.692 238.412,462.692 238.412,406.574 256.114,388.871 298.133,388.871 
	315.836,406.574 "/>
<polygon style="fill:#FFB655;" points="294.712,462.692 217.288,462.692 217.288,406.574 234.991,388.871 277.009,388.871 
	294.712,406.574 "/>
<polygon style="fill:#FF7956;" points="261.057,388.871 234.991,388.871 217.288,406.574 217.288,462.692 243.354,462.692 
	243.354,406.574 "/>
<rect x="183" y="168.18" style="fill:#FFB655;" width="146" height="39.35"/>
<g>
	<rect x="183" y="168.18" style="fill:#FF7956;" width="39.35" height="39.35"/>
	<polygon style="fill:#FF7956;" points="304.672,168.181 207.317,168.181 248.447,91.405 263.541,91.405 	"/>
</g>
<polygon style="fill:#FF3F62;" points="263.542,91.405 248.447,91.405 207.317,168.181 236.278,168.181 270.475,104.347 "/>
<rect x="99.81" y="396.87" style="fill:#FFDAAA;" width="72.13" height="65.82"/>
<rect x="99.81" y="396.87" style="fill:#FF9478;" width="20" height="65.82"/>
<g>
	<rect x="20.381" y="263.35" style="fill:#FFDAAA;" width="79.43" height="199.34"/>
	<rect x="340.05" y="396.87" style="fill:#FFDAAA;" width="72.13" height="65.82"/>
</g>
<rect x="340.05" y="396.87" style="fill:#FF9478;" width="26.05" height="65.82"/>
<rect x="412.19" y="263.35" style="fill:#FFDAAA;" width="79.43" height="199.34"/>
<g>
	<polygon style="fill:#FF7956;" points="91.697,180.628 91.697,207.531 70.598,207.531 70.598,180.628 49.598,180.628 
		49.598,207.531 28.5,207.531 28.5,180.628 7.5,180.628 7.5,263.351 112.697,263.351 112.697,180.628 	"/>
	<polygon style="fill:#FF7956;" points="420.303,180.628 420.303,207.531 441.402,207.531 441.402,180.628 462.402,180.628 
		462.402,207.531 483.5,207.531 483.5,180.628 504.5,180.628 504.5,263.351 399.303,263.351 399.303,180.628 	"/>
</g>
<g>
	<rect x="20.381" y="263.35" style="fill:#FF9478;" width="32.453" height="199.34"/>
	<rect x="412.19" y="263.35" style="fill:#FF9478;" width="32.453" height="199.34"/>
</g>
<g>
	<polygon style="fill:#FF3F62;" points="28.5,207.531 28.5,180.628 7.5,180.628 7.5,263.351 39.953,263.351 39.953,207.531 	"/>
	<polygon style="fill:#FF3F62;" points="420.303,207.531 420.303,180.628 399.303,180.628 399.303,263.351 431.756,263.351 
		431.756,207.531 	"/>
</g>
<rect x="255.91" y="20.04" style="fill:#57A4FF;" width="36.544" height="26.676"/>
<rect x="255.91" y="20.04" style="fill:#006DF0;" width="14.564" height="26.676"/>
<rect x="292.46" y="33.373" style="fill:#57A4FF;" width="36.544" height="26.676"/>
<rect x="292.46" y="33.373" style="fill:#006DF0;" width="16.264" height="26.676"/>
<polygon style="fill:#FF7956;" points="331.333,282.687 331.333,319.217 297.63,319.217 297.63,282.687 272.852,282.687 
	272.852,319.217 239.148,319.217 239.148,282.687 214.37,282.687 214.37,319.217 180.667,319.217 180.667,282.687 155.888,282.687 
	155.888,360.914 356.112,360.914 356.112,282.687 "/>
<rect x="171.95" y="360.91" style="fill:#FF9478;" width="22.248" height="101.78"/>
<rect x="155.89" y="282.69" style="fill:#FF3F62;" width="22.248" height="78.23"/>
<g>
	<rect x="297.63" y="282.69" style="fill:#FF9478;" width="15" height="36.529"/>
	<rect x="239.15" y="282.69" style="fill:#FF9478;" width="15" height="36.529"/>
</g>
<rect x="7.5" y="462.69" style="fill:#B6E892;" width="497" height="29.27"/>
<g>
	<rect x="460" y="319.89" style="fill:#FFFFFF;" width="15" height="68.01"/>
	<rect x="460" y="397.9" style="fill:#FFFFFF;" width="15" height="15"/>
	<rect x="460" y="422.9" style="fill:#FFFFFF;" width="15" height="15"/>
	<rect x="64.725" y="397.9" style="fill:#FFFFFF;" width="15" height="15"/>
	<rect x="64.725" y="422.9" style="fill:#FFFFFF;" width="15" height="15"/>
	<rect x="64.725" y="319.89" style="fill:#FFFFFF;" width="15" height="68.01"/>
</g>
<g>
	<path style="fill:#1D1D1F;" d="M248.5,74.608h15V57.415h21.456v13.338H336.5V29.077h-36.544V15.739H263.5V9.332h-15v6.407h-0.089
		v41.676h0.089V74.608z M321.5,44.077v11.676h-21.544V44.077H321.5z M284.956,30.739v11.676H263.5V30.739H284.956z"/>
	<rect x="119.81" y="392.57" style="fill:#1D1D1F;" width="32.13" height="15"/>
	<rect x="360.05" y="392.57" style="fill:#1D1D1F;" width="32.13" height="15"/>
	<rect x="273.45" y="336.43" style="fill:#1D1D1F;" width="68.02" height="15"/>
	<rect x="248.45" y="336.43" style="fill:#1D1D1F;" width="15" height="15"/>
	<rect x="223.45" y="336.43" style="fill:#1D1D1F;" width="15" height="15"/>
	<path style="fill:#1D1D1F;" d="M512,274.055v-97.723h-36v26.902h-6.098v-26.902h-36v26.902h-6.099v-26.902h-36v97.723h12.881
		v139.61H389v15h15.685v29.73h-57.133v-10.25h28.566v-15h-28.566v-61.527h16.061v-93.227h-39.779v36.53H305.13v-36.53h-39.779v36.53
		h-18.703v-36.53H206.87v36.53h-18.703v-36.53h-39.779v93.227h16.061v48.385H130.4v15h34.049v23.392h-57.133v-184.34h12.881v-97.723
		h-36v26.902h-6.098v-26.902h-36v26.902H36v-26.902H0v97.723h12.881v184.34H0v44.273h512v-44.273h-12.881v-184.34H512z
		 M412.803,191.332v26.902h36.099v-26.902h6v26.902H491v-26.902h6v67.723h-90.197v-15.341H432v-15h-25.197v-37.382L412.803,191.332
		L412.803,191.332z M163.388,356.618v-63.227h9.779v36.53h48.703v-36.53h9.779v36.53h48.703v-36.53h9.779v36.53h48.703v-36.53h9.779
		v63.227H163.388z M179.449,371.618h153.103v86.777h-30.339v-51.724l-22.097-22.097h-48.231l-22.097,22.097v51.724h-30.339
		L179.449,371.618L179.449,371.618z M234.75,425.832v32.563h-9.962v-45.511l13.31-13.31H259.5v41.07h15v-40.473l12.712,12.712
		v45.511H249.75v-32.563h-15V425.832z M15,191.332h6v26.902h36.098v-26.902h6v26.902h36.098v-26.902h6v67.723H80.553v-21.204h-15
		v21.204H15V191.332z M27.881,274.055h64.434v184.34H27.881V274.055z M497,487.668H15v-14.273h482V487.668z M484.119,458.395
		h-64.434v-184.34h64.434V458.395z"/>
	<rect x="273.45" y="238.66" style="fill:#1D1D1F;" width="15" height="15"/>
	<rect x="248.45" y="238.66" style="fill:#1D1D1F;" width="15" height="15"/>
	<rect x="223.45" y="238.66" style="fill:#1D1D1F;" width="15" height="15"/>
	<rect x="39.557" y="285.72" style="fill:#1D1D1F;" width="15" height="15"/>
	<rect x="64.56" y="285.72" style="fill:#1D1D1F;" width="15" height="15"/>
	<rect x="456.68" y="285.72" style="fill:#1D1D1F;" width="15" height="15"/>
	<rect x="431.68" y="285.72" style="fill:#1D1D1F;" width="15" height="15"/>
	<path style="fill:#1D1D1F;" d="M186.696,265.891h15v-47.656h108.607v47.656h15v-47.656H336.5v-54.35h-27.338l-41.13-76.776h-24.076
		l-41.13,76.776H175.5v54.35h11.196V265.891z M252.938,102.108h6.113l33.094,61.776h-72.301L252.938,102.108z M190.5,178.885h131
		v24.35h-131V178.885z"/>
</g>
<g>
</g>
<g>
</g>
<g>
</g>
<g>
</g>
<g>
</g>
<g>
</g>
<g>
</g>
<g>
</g>
<g>
</g>
<g>
</g>
<g>
</g>
<g>
</g>
<g>
</g>
<g>
</g>
<g>
</g>
</svg>
