<svg id="Capa_1" enable-background="new 0 0 512 512" height="512" viewBox="0 0 512 512" width="512" xmlns="http://www.w3.org/2000/svg"><g><g id="_x3C_Group_x3E__16_"><path d="m265.5 41.043h-233c-1.712 0-3.384.172-4.999.5 0 0 0 0-.001 0v-.003c-11.41 2.32-20 12.41-20 24.5v161.26c0 13.8 11.19 25 25 25h14.86c6.29 0 11.39 5.1 11.39 11.38v31.222c0 4.352 3.322 8.144 7.669 8.349 2.278.107 4.472-.752 6.071-2.351l41.94-41.93c4.27-4.27 10.06-6.67 16.1-6.67h70.97 49.14c12.512.024 27.21-6.666 34.57-20h-.018c3.37-5.849 5.307-12.627 5.307-19.86v-23.7-122.697c.001-13.807-11.192-25-24.999-25z" fill="#f5fcff"/><path d="m290.5 195.74h-42c-2.8 0-5.62.28-8.36.84l-.29.05s-.36.09-.47.12c-16.607 3.682-29.207 17.176-32.194 33.522-.528 2.89-2.98 5.028-5.918 5.028h-70.738c-10.62 0-20.61 4.14-28.12 11.65l-21.539 21.531c-1.89 1.889-5.121.551-5.121-2.122v-2.679c0-15.674-12.706-28.38-28.38-28.38h-14.87c-4.418 0-8-3.582-8-8v-184.95c-4.45 1.5-8.34 4.23-11.28 7.78-3.57 4.32-5.72 9.87-5.72 15.91v161.26c0 13.8 11.19 25 25 25h14.86c6.29 0 11.39 5.1 11.39 11.38v31.22c0 4.35 3.32 8.15 7.67 8.35 2.28.11 4.47-.75 6.07-2.35l41.94-41.93c4.27-4.27 10.06-6.67 16.1-6.67h75.97 44.14c12.213-.223 25.205-5.935 32.71-17h-.018c.663-.964 1.3-1.954 1.878-3h-.02c6.121-8.668 5.48-26.154 5.31-36.56z" fill="#e6f7fe"/><path d="m479.5 208.741c13.807 0 25 11.193 25 25v161.254c0 13.807-11.193 25-25 25l-13.986-2.976c-6.29 0-15.853 3.839-15.853 10.128 0 0-.589 14.852-.589 26.422 0 4.447-3.605 8.05-8.053 8.05-2.136 0-4.184-.848-5.694-2.359l-34.545-37.838c-4.271-4.271-10.065-6.671-16.106-6.671l-133.619-.102c-13.807 0-25-11.193-25-25l-1.422-155.869c0-12.081 5.437-22.2 16.829-24.531 1.627-.333 3.312-.508 5.038-.508z" fill="#bed9fd"/><path d="m504 399.99c-2.32 11.41-12.4 20-24.5 20h-14.86c-6.291 0-11.39 5.099-11.39 11.39v31.53c0 4.44-3.6 8.05-8.05 8.05-2.14 0-4.18-.85-5.69-2.36l-41.94-41.93c-4.27-4.28-10.06-6.68-16.1-6.68h-134.97c-13.807 0-25-11.193-25-25v-161.25c0-12.1 8.59-22.18 20-24.5v185.75c0 2.761 2.239 5 5 5h134.97c11.42 0 22.17 4.45 30.24 12.53l14.001 14.001c2.77 2.77 7.433 1.405 8.4-2.391 3.43-13.465 15.723-24.201 30.529-24.14z" fill="#9ec8fc"/></g><g><g><path d="m7.5 164.053c4.142 0 7.5-3.357 7.5-7.5v-90.51c0-9.649 7.851-17.5 17.5-17.5h233c9.649 0 17.5 7.851 17.5 17.5v21.638c0 4.143 3.358 7.5 7.5 7.5s7.5-3.357 7.5-7.5v-21.638c0-17.921-14.58-32.5-32.5-32.5h-233c-17.92 0-32.5 14.579-32.5 32.5v90.51c0 4.142 3.358 7.5 7.5 7.5z"/><path d="m504.5 336.074c4.142 0 7.5-3.357 7.5-7.5v-94.834c0-17.921-14.58-32.5-32.5-32.5h-181.5v-78.581c0-4.143-3.358-7.5-7.5-7.5s-7.5 3.357-7.5 7.5v78.581h-21.641c-24.833 0-45.248 19.216-47.193 43.557h-83.633c-8.087 0-15.691 3.149-21.409 8.867l-41.934 41.934c-.321.321-.942.061-.942-.388v-31.525c0-10.415-8.473-18.888-18.888-18.888h-14.86c-9.649 0-17.5-7.851-17.5-17.5v-35.701c0-4.143-3.358-7.5-7.5-7.5s-7.5 3.357-7.5 7.5v35.701c0 17.921 14.58 32.5 32.5 32.5h14.859c2.144 0 3.888 1.744 3.888 3.888v31.525c0 8.574 6.977 15.55 15.553 15.55 4.154 0 8.061-1.618 10.997-4.556l41.933-41.933c2.885-2.886 6.722-4.475 10.803-4.475h83.467v135.197c0 17.921 14.58 32.5 32.5 32.5h134.967c4.081 0 7.917 1.589 10.803 4.475l41.934 41.934c2.938 2.938 6.843 4.555 10.996 4.555 8.576 0 15.553-6.976 15.553-15.55v-31.524c0-2.145 1.744-3.889 3.888-3.889h14.859c17.92 0 32.5-14.579 32.5-32.5v-31.696c0-4.143-3.358-7.5-7.5-7.5s-7.5 3.357-7.5 7.5v31.696c0 9.649-7.851 17.5-17.5 17.5h-14.859c-10.415 0-18.888 8.474-18.888 18.889v31.524c0 .449-.624.708-.943.388l-41.933-41.934c-5.718-5.718-13.322-8.867-21.409-8.867h-134.968c-9.649 0-17.5-7.851-17.5-17.5v-146.394c0-17.843 14.517-32.359 32.359-32.359h218.141c9.649 0 17.5 7.851 17.5 17.5v94.834c0 4.142 3.358 7.499 7.5 7.499z"/><path d="m338.946 313.548c-3.871-1.476-8.204.468-9.678 4.34l-19.966 52.424c-1.474 3.87.468 8.203 4.339 9.678.879.335 1.781.493 2.668.493 3.022 0 5.871-1.84 7.01-4.833l9.339-24.521h61.768l9.246 24.501c1.134 3.003 3.987 4.854 7.019 4.854.879 0 1.775-.156 2.646-.485 3.875-1.462 5.832-5.789 4.369-9.665l-43.591-115.508c-1.625-4.31-5.811-7.203-10.421-7.203-.002 0-.005 0-.007 0-4.584.006-8.759 2.888-10.389 7.169l-11.589 30.429c-1.475 3.871.468 8.204 4.339 9.679 3.871 1.477 8.204-.468 9.678-4.339l7.957-20.893 25.082 66.462h-50.395l4.914-12.902c1.475-3.873-.467-8.206-4.338-9.68z"/><path d="m89.576 192.21c-4.142 0-7.5 3.357-7.5 7.5s3.358 7.5 7.5 7.5c22.521 0 43.132-8.324 58.924-22.056 15.791 13.732 36.403 22.056 58.924 22.056 4.142 0 7.5-3.357 7.5-7.5s-3.358-7.5-7.5-7.5c-18.456 0-35.362-6.722-48.433-17.83 11.305-13.724 18.623-30.846 20.178-49.578h23.131c4.142 0 7.5-3.357 7.5-7.5s-3.358-7.5-7.5-7.5h-46.3v-24.951c0-4.143-3.358-7.5-7.5-7.5s-7.5 3.357-7.5 7.5v24.951h-46.3c-4.142 0-7.5 3.357-7.5 7.5s3.358 7.5 7.5 7.5h23.131c1.555 18.733 8.873 35.855 20.178 49.578-13.07 11.107-29.977 17.83-48.433 17.83zm74.532-67.408c-1.448 14.502-7.063 27.786-15.608 38.668-8.545-10.882-14.16-24.166-15.608-38.668z"/></g></g></g></svg>