<svg id="Capa_1" enable-background="new 0 0 511.003 511.003" height="512" viewBox="0 0 511.003 511.003" width="512" xmlns="http://www.w3.org/2000/svg"><g><path d="m111 415.003c-3.839 0-7.678-1.465-10.606-4.394-5.858-5.857-5.858-15.355 0-21.213l76-76c5.857-5.857 15.355-5.857 21.213 0s5.858 15.355 0 21.213l-76 76c-2.929 2.929-6.768 4.394-10.607 4.394z" fill="#c8885e"/><path d="m111 385.003h-68.033c-.017 0-.034 0-.051 0-23.673.045-42.916 19.317-42.916 43 0 22.735 17.735 41.405 40.097 42.903 1.498 22.361 20.168 40.097 42.903 40.097 23.71 0 43-19.29 43-43v-68c0-8.284-6.716-15-15-15z" fill="#b5baf3"/><path d="m462.17 160.073c0 29.65-11.55 57.51-32.51 78.48l-13.05 13.06c-15.08 15.08-15.08 15.08-89.95 89.95l-61.05 61.05c-2.93 2.93-6.77 4.39-10.61 4.39s-7.68-1.46-10.61-4.39l-164.05-164.05c-16.96-16.97-27.79-38.46-31.3-62.14-3.45-23.22.39-46.46 11.1-67.2 3.13-6.05 9.94-9.24 16.58-7.76l30.53 6.78-6.76-30.42c-1.49-6.67 1.73-13.49 7.81-16.61 43-21.99 94.85-13.8 129.03 20.37l17.67 17.68 17.69-17.68c43.27-43.28 113.69-43.27 156.97 0 20.96 20.97 32.51 48.84 32.51 78.49z" fill="#ff73a5"/><path d="m462.17 160.073c0 29.65-11.55 57.51-32.51 78.48l-13.05 13.06c-15.08 15.08-15.08 15.08-89.95 89.95l-61.05 61.05c-2.93 2.93-6.77 4.39-10.61 4.39v-307.74l17.69-17.68c43.27-43.28 113.69-43.27 156.97 0 20.96 20.97 32.51 48.84 32.51 78.49z" fill="#ff468c"/><path d="m315.25 210.753c-3.839 0-7.678-1.465-10.606-4.394-5.858-5.857-5.858-15.355 0-21.213l162.75-162.75c5.857-5.857 15.355-5.857 21.213 0s5.858 15.355 0 21.213l-162.75 162.75c-2.929 2.929-6.768 4.394-10.607 4.394z" fill="#9f5f4e"/><path d="m495.988 70.007c-6.721 0-12.837-4.55-14.54-11.366l-5.817-23.269-23.269-5.817c-8.037-2.009-12.924-10.153-10.914-18.189 2.009-8.037 10.163-12.922 18.189-10.914l32 8c5.375 1.343 9.571 5.539 10.914 10.914l8 32c2.01 8.036-2.877 16.181-10.914 18.189-1.22.305-2.445.452-3.649.452z" fill="#979fef"/><path d="m332.059 240.344c-6.713 0-12.824-4.538-14.536-11.345-4.349-17.287-17.761-30.847-35.003-35.386-8.011-2.109-12.796-10.313-10.687-18.325 2.109-8.01 10.309-12.798 18.325-10.687 27.81 7.322 49.443 29.193 56.458 57.079 2.021 8.034-2.854 16.186-10.888 18.206-1.227.309-2.458.458-3.669.458z" fill="#d72878"/></g></svg>