<?xml version="1.0" encoding="iso-8859-1"?>
<!-- Generator: Adobe Illustrator 19.0.0, SVG Export Plug-In . SVG Version: 6.00 Build 0)  -->
<svg version="1.1" id="Capa_1" xmlns="http://www.w3.org/2000/svg" xmlns:xlink="http://www.w3.org/1999/xlink" x="0px" y="0px"
	 viewBox="0 0 512 512" style="enable-background:new 0 0 512 512;" xml:space="preserve">
<path style="fill:#00E2F0;" d="M483.863,385.382H31.655c-11.1,0-20.098-8.998-20.098-20.098V27.635
	c0-11.1,8.998-20.098,20.098-20.098h452.208c11.1,0,20.098,8.998,20.098,20.098v337.649
	C503.961,376.384,494.963,385.382,483.863,385.382z"/>
<path style="fill:#00C6DA;" d="M240.361,282.881l-21.158-11.346l45.351-84.572c5.13-9.566,6.227-20.555,3.091-30.946
	s-10.131-18.937-19.698-24.068c-19.746-10.589-44.429-3.14-55.018,16.604l-15.691,29.262l-28.975-15.538l-4.361,8.135
	l-28.979-15.541l-8.725,16.267l-28.973-15.537L20.9,260.636l-2.174,22.246h-7.17v82.402c0,11.1,8.998,20.098,20.098,20.098h452.208
	c11.1,0,20.098-8.998,20.098-20.098v-82.402H240.361z"/>
<path style="fill:#FFFFFF;" d="M503.961,302.979v62.304c0,11.1-8.998,20.098-20.098,20.098H31.655
	c-11.1,0-20.098-8.998-20.098-20.098v-62.304H503.961z"/>
<path style="fill:#D8D7DA;" d="M242.792,302.979H16.762l-1.343,13.739l-3.863,6.252v42.314c0,4.857,1.722,9.31,4.589,12.784
	c0.819,0.993,1.731,1.905,2.724,2.724c0.496,0.41,1.013,0.796,1.548,1.157c1.069,0.723,2.212,1.345,3.414,1.853
	c2.405,1.017,5.048,1.58,7.823,1.58h141.124l37.268-21.336L242.792,302.979z"/>
<path style="fill:#FFFFFF;" d="M308.004,429.543v-44.162H207.513v44.162c0,17.646-12.256,32.926-29.483,36.753l0,0
	c-9.196,2.044-15.738,10.2-15.738,19.62v14.025h190.932v-14.025c0-9.42-6.543-17.576-15.738-19.62l0,0
	C320.26,462.468,308.004,447.19,308.004,429.543z"/>
<rect x="207.513" y="385.382" style="fill:#D8D7DA;" width="100.491" height="20.098"/>
<path style="fill:#FFFFFF;" d="M472.306,141.189h-15.074v-16.079h15.074V141.189z M472.306,109.032h-15.074V34.669h15.074V109.032z"
	/>
<path style="fill:#FFD3A4;" d="M238.449,149.662L238.449,149.662c-9.996-5.36-22.448-1.605-27.807,8.391l-25.19,46.973
	l-28.973-15.537l-4.362,8.134l-28.981-15.541l-8.724,16.267l-28.972-15.537l-44.926,83.779l-5.544,56.723L0.502,379.097V512h64.954
	l75.761-131.708l53.84-30.826l28.351-52.87l-31.417-16.847l54.85-102.284C252.202,167.469,248.444,155.021,238.449,149.662z"/>
<path style="fill:#FFC477;" d="M62.764,444.604c-29.07-13.963-45.143-47.526-47.274-89.763L0.502,379.097V512h64.954l35.097-61.016
	C87.199,452.183,74.405,450.195,62.764,444.604z"/>
<path d="M483.863,0H31.655C16.416,0,4.02,12.397,4.02,27.635v229.162h15.074V27.635c0-6.927,5.635-12.561,12.561-12.561h452.208
	c6.927,0,12.561,5.635,12.561,12.561v267.808h-242.23v15.074h242.23v54.767c0,6.927-5.635,12.561-12.561,12.561H315.541H199.976
	h-6.973v15.074h6.973v36.624c0,14.222-9.696,26.311-23.581,29.397c-12.741,2.832-21.64,13.925-21.64,26.977v21.562h206.006v-21.562
	c0-13.052-8.898-24.145-21.64-26.977c-13.884-3.085-23.581-15.174-23.581-29.397v-36.624h168.322
	c15.238,0,27.635-12.397,27.635-27.635v-69.841V27.635C511.498,12.397,499.101,0,483.863,0z M335.852,473.654
	c5.791,1.286,9.836,6.329,9.836,12.262v6.489H169.829v-6.489c0-5.933,4.045-10.976,9.836-12.262
	c20.835-4.631,35.385-22.769,35.385-44.111v-36.624h85.417v36.624C300.467,450.885,315.017,469.023,335.852,473.654z"/>
<path d="M233.614,293.516l-31.417-16.848l51.287-95.642c7.316-13.642,2.169-30.691-11.473-38.007
	c-13.646-7.318-30.696-2.17-38.011,11.471l-21.628,40.331l-28.973-15.537l-3.926,7.324l-0.435,0.811l-28.982-15.542l-8.725,16.267
	l-28.972-15.537l-49.201,91.75l-5.52,56.483L2.13,362.123l12.823,7.924L42.3,325.789l5.567-56.964l40.654-75.808l15.69,8.413
	l-13.886,25.893l13.284,7.123l13.885-25.893l0,0l8.725-16.267l15.697,8.417l-22.609,42.163l13.284,7.123l22.609-42.162l0.001,0.001
	l4.361-8.135l15.69,8.413l-26.971,50.297l13.284,7.123l26.971-50.296h0.001l28.75-53.616c3.387-6.317,11.286-8.698,17.604-5.311
	c6.318,3.388,8.701,11.283,5.313,17.6l-58.414,108.927l31.417,16.848L189.438,344l-53.725,30.758L61.31,503.197l13.043,7.557
	l72.37-124.929l53.955-30.89L233.614,293.516z"/>
<path d="M166.27,175.165l14.334-4.664c-9.512-29.245,6.54-60.776,35.784-70.29c29.245-9.511,60.777,6.54,70.29,35.784
	c9.512,29.245-6.54,60.776-35.784,70.29l4.664,14.334c37.147-12.084,57.539-52.139,45.454-89.288
	c-12.085-37.147-52.143-57.542-89.288-45.454C174.577,97.961,154.186,138.016,166.27,175.165z"/>
<path d="M339.636,155.412l-15.07-0.302c-0.093,4.646-0.542,9.302-1.332,13.841l14.85,2.587
	C339.006,166.246,339.528,160.82,339.636,155.412z"/>
<path d="M296.614,218.863l10.438,10.875c3.892-3.736,7.526-7.799,10.802-12.078l-11.966-9.164
	C303.075,212.168,299.955,215.657,296.614,218.863z"/>
<path d="M267.641,52.802l-4.833,14.279c4.378,1.482,8.681,3.317,12.788,5.457l6.964-13.368
	C277.77,56.673,272.75,54.531,267.641,52.802z"/>
<path d="M333.734,188.273l-14.227-4.978c-1.527,4.366-3.408,8.648-5.588,12.73l13.295,7.103
	C329.758,198.365,331.952,193.367,333.734,188.273z"/>
<path d="M217.493,48.455c-5.338,0.816-10.651,2.052-15.791,3.674l4.536,14.375c4.406-1.391,8.958-2.45,13.532-3.148L217.493,48.455z
	"/>
<path d="M234.724,47.236l-0.151,15.074c4.648,0.046,9.31,0.446,13.857,1.19l2.432-14.876
	C245.562,47.756,240.134,47.291,234.724,47.236z"/>
<path d="M185.694,58.668c-4.799,2.439-9.456,5.271-13.841,8.42l8.793,12.244c3.762-2.702,7.758-5.132,11.874-7.223L185.694,58.668z"
	/>
<path d="M320.662,126.732c1.345,4.42,2.358,8.983,3.009,13.562l14.923-2.121c-0.76-5.344-1.941-10.67-3.511-15.829L320.662,126.732z
	"/>
<path d="M247.645,258.348c5.352-0.706,10.689-1.833,15.861-3.349l-4.238-14.466c-4.435,1.299-9.009,2.265-13.596,2.87
	L247.645,258.348z"/>
<path d="M148.128,90.568l12.151,8.921c2.738-3.731,5.787-7.282,9.061-10.554l-10.656-10.661
	C154.87,82.086,151.319,86.223,148.128,90.568z"/>
<path d="M127.623,153.248h15.074c0-4.647,0.354-9.313,1.051-13.872l-14.901-2.279C128.035,142.407,127.623,147.841,127.623,153.248z
	"/>
<path d="M132.852,120.277l14.328,4.685c1.437-4.395,3.228-8.717,5.324-12.843l-13.439-6.826
	C136.619,110.108,134.529,115.15,132.852,120.277z"/>
<path d="M308.096,101.012c2.663,3.787,5.052,7.807,7.101,11.946l13.509-6.689c-2.39-4.827-5.175-9.511-8.278-13.926L308.096,101.012
	z"/>
<path d="M279.646,248.788c4.849-2.338,9.564-5.076,14.01-8.135l-8.542-12.42c-3.817,2.625-7.858,4.972-12.017,6.978L279.646,248.788
	z"/>
<path d="M288.148,80.442c3.702,2.776,7.222,5.86,10.46,9.167l10.77-10.548c-3.773-3.853-7.874-7.445-12.188-10.68L288.148,80.442z"
	/>
<g>
</g>
<g>
</g>
<g>
</g>
<g>
</g>
<g>
</g>
<g>
</g>
<g>
</g>
<g>
</g>
<g>
</g>
<g>
</g>
<g>
</g>
<g>
</g>
<g>
</g>
<g>
</g>
<g>
</g>
</svg>
