<?xml version="1.0" encoding="UTF-8" standalone="no"?>
<svg
   xmlns:dc="http://purl.org/dc/elements/1.1/"
   xmlns:cc="http://creativecommons.org/ns#"
   xmlns:rdf="http://www.w3.org/1999/02/22-rdf-syntax-ns#"
   xmlns:svg="http://www.w3.org/2000/svg"
   xmlns="http://www.w3.org/2000/svg"
   xmlns:sodipodi="http://sodipodi.sourceforge.net/DTD/sodipodi-0.dtd"
   xmlns:inkscape="http://www.inkscape.org/namespaces/inkscape"
   version="1.1"
   id="svg2"
   xml:space="preserve"
   width="666.66669"
   height="496.81332"
   viewBox="0 0 666.66669 496.81332"
   sodipodi:docname="2808306.eps"><metadata
     id="metadata8"><rdf:RDF><cc:Work
         rdf:about=""><dc:format>image/svg+xml</dc:format><dc:type
           rdf:resource="http://purl.org/dc/dcmitype/StillImage" /></cc:Work></rdf:RDF></metadata><defs
     id="defs6" /><sodipodi:namedview
     pagecolor="#ffffff"
     bordercolor="#666666"
     borderopacity="1"
     objecttolerance="10"
     gridtolerance="10"
     guidetolerance="10"
     inkscape:pageopacity="0"
     inkscape:pageshadow="2"
     inkscape:window-width="640"
     inkscape:window-height="480"
     id="namedview4" /><g
     id="g10"
     inkscape:groupmode="layer"
     inkscape:label="ink_ext_XXXXXX"
     transform="matrix(1.3333333,0,0,-1.3333333,0,496.81333)"><g
       id="g12"
       transform="scale(0.1)"><path
         d="m 0,449.129 h 5000 v 2.5 H 0 Z"
         style="fill:#e7e8e5;fill-opacity:1;fill-rule:nonzero;stroke:none"
         id="path14" /><path
         d="m 4167.79,290.672 h 331.22 v -2.5 h -331.22 v 2.5"
         style="fill:#e7e8e5;fill-opacity:1;fill-rule:nonzero;stroke:none"
         id="path16" /><path
         d="m 3333.81,288.172 h 708.063 v 2.5 H 3333.81 Z"
         style="fill:#e7e8e5;fill-opacity:1;fill-rule:nonzero;stroke:none"
         id="path18" /><path
         d="m 2751.41,381.031 h 191.922 v 2.5 H 2751.41 Z"
         style="fill:#e7e8e5;fill-opacity:1;fill-rule:nonzero;stroke:none"
         id="path20" /><path
         d="m 524.59,366.73 h 342.902 v -2.5 H 524.59 v 2.5"
         style="fill:#e7e8e5;fill-opacity:1;fill-rule:nonzero;stroke:none"
         id="path22" /><path
         d="M 956.523,364.23 H 1580 v 2.5 H 956.523 Z"
         style="fill:#e7e8e5;fill-opacity:1;fill-rule:nonzero;stroke:none"
         id="path24" /><path
         d="m 1883.33,322.012 h 368.141 v 2.5 H 1883.33 Z"
         style="fill:#e7e8e5;fill-opacity:1;fill-rule:nonzero;stroke:none"
         id="path26" /><path
         d="m 439.152,3723.59 c -30.101,0 -54.582,-24.48 -54.582,-54.57 V 954.699 c 0,-30.097 24.481,-54.578 54.582,-54.578 H 2370.14 c 30.09,0 54.57,24.481 54.57,54.578 V 3669.02 c 0,30.09 -24.48,54.57 -54.57,54.57 H 439.152 M 2370.14,897.621 H 439.152 c -31.476,0 -57.082,25.598 -57.082,57.078 V 3669.02 c 0,31.46 25.606,57.07 57.082,57.07 H 2370.14 c 31.46,0 57.07,-25.61 57.07,-57.07 V 954.699 c 0,-31.48 -25.61,-57.078 -57.07,-57.078"
         style="fill:#e7e8e5;fill-opacity:1;fill-rule:nonzero;stroke:none"
         id="path28" /><path
         d="m 2602.12,3723.59 c -30.09,0 -54.57,-24.48 -54.57,-54.57 V 954.699 c 0,-30.097 24.48,-54.578 54.57,-54.578 H 4533.1 c 30.1,0 54.59,24.481 54.59,54.578 V 3669.02 c 0,30.09 -24.49,54.57 -54.59,54.57 H 2602.12 M 4533.1,897.621 H 2602.12 c -31.47,0 -57.07,25.598 -57.07,57.078 V 3669.02 c 0,31.46 25.6,57.07 57.07,57.07 H 4533.1 c 31.48,0 57.09,-25.61 57.09,-57.07 V 954.699 c 0,-31.48 -25.61,-57.078 -57.09,-57.078"
         style="fill:#e7e8e5;fill-opacity:1;fill-rule:nonzero;stroke:none"
         id="path30" /><path
         d="m 758.336,2343.39 h 1356.98 V 3519.1 H 758.336 Z"
         style="fill:#e2e2e0;fill-opacity:1;fill-rule:nonzero;stroke:none"
         id="path32" /><path
         d="M 728.18,2343.39 H 2085.17 V 3519.1 H 728.18 Z"
         style="fill:#f3f2f1;fill-opacity:1;fill-rule:nonzero;stroke:none"
         id="path34" /><path
         d="m 782.309,2385.41 h 1248.73 V 3477.09 H 782.309 Z"
         style="fill:#fafaf9;fill-opacity:1;fill-rule:nonzero;stroke:none"
         id="path36" /><path
         d="m 1530.21,2385.41 226.25,1091.68 H 1283.14 L 1056.89,2385.41 h 473.32"
         style="fill:#ffffff;fill-opacity:1;fill-rule:nonzero;stroke:none"
         id="path38" /><path
         d="M 805.105,2385.41 V 3477.09 H 782.309 V 2385.41 h 22.796"
         style="fill:#e2e2e0;fill-opacity:1;fill-rule:nonzero;stroke:none"
         id="path40" /><path
         d="m 750.566,2581.16 h 1312.21 v 56.4102 H 750.566 Z"
         style="fill:#f3f2f1;fill-opacity:1;fill-rule:nonzero;stroke:none"
         id="path42" /><path
         d="m 2052.46,511.172 h 216.68 v 939.727 h -216.68 z"
         style="fill:#ededeb;fill-opacity:1;fill-rule:nonzero;stroke:none"
         id="path44" /><path
         d="m 637.227,451.629 h 1590.31 v 59.543 H 637.227 Z"
         style="fill:#ededeb;fill-opacity:1;fill-rule:nonzero;stroke:none"
         id="path46" /><path
         d="m 595.625,511.172 h 1456.84 v 939.727 H 595.625 Z"
         style="fill:#f3f2f1;fill-opacity:1;fill-rule:nonzero;stroke:none"
         id="path48" /><path
         d="m 680.813,1027.04 h 1286.46 v 308.191 H 680.813 Z"
         style="fill:#ededeb;fill-opacity:1;fill-rule:nonzero;stroke:none"
         id="path50" /><path
         d="m 680.813,626.852 h 1286.46 V 935.04 H 680.813 Z"
         style="fill:#ededeb;fill-opacity:1;fill-rule:nonzero;stroke:none"
         id="path52" /><path
         d="m 977.324,1160 h 693.436 c 11.63,0 21.13,9.51 21.13,21.14 0,11.62 -9.5,21.13 -21.13,21.13 H 977.324 c -11.625,0 -21.133,-9.51 -21.133,-21.13 0,-11.63 9.508,-21.14 21.133,-21.14"
         style="fill:#f3f2f1;fill-opacity:1;fill-rule:nonzero;stroke:none"
         id="path54" /><path
         d="m 977.324,759.809 h 693.436 c 11.63,0 21.13,9.511 21.13,21.14 0,11.621 -9.5,21.133 -21.13,21.133 H 977.324 c -11.625,0 -21.133,-9.512 -21.133,-21.133 0,-11.629 9.508,-21.14 21.133,-21.14"
         style="fill:#f3f2f1;fill-opacity:1;fill-rule:nonzero;stroke:none"
         id="path56" /><path
         d="m 4316.24,2904.59 c 123.4,34.01 165.61,257.89 -146.24,349.29 68.78,-225.15 -68.91,-408.58 146.24,-349.29"
         style="fill:#e7e8e5;fill-opacity:1;fill-rule:nonzero;stroke:none"
         id="path58" /><path
         d="m 4343.53,2807.41 c 97.25,105.14 5.26,342.87 -345.12,245.74 198.24,-173.44 175.58,-429.06 345.12,-245.74"
         style="fill:#dadbd8;fill-opacity:1;fill-rule:nonzero;stroke:none"
         id="path60" /><path
         d="m 4247.49,2780.44 c -81.44,80.61 35.2,361.09 304,231.1 -152.32,-145.62 -162.03,-371.63 -304,-231.1"
         style="fill:#fafaf9;fill-opacity:1;fill-rule:nonzero;stroke:none"
         id="path62" /><path
         d="m 4166.34,2623.39 h 236.89 l 17.88,160.29 h -272.65 l 17.88,-160.29"
         style="fill:#e2e2e0;fill-opacity:1;fill-rule:nonzero;stroke:none"
         id="path64" /><path
         d="m 4145.79,2755.03 h 277.98 c 9.77,0 17.69,7.92 17.69,17.68 0,9.77 -7.92,17.69 -17.69,17.69 h -277.98 c -9.76,0 -17.68,-7.92 -17.68,-17.69 0,-9.76 7.92,-17.68 17.68,-17.68"
         style="fill:#e2e2e0;fill-opacity:1;fill-rule:nonzero;stroke:none"
         id="path66" /><path
         d="M 2173.08,723.102 V 994.57 h 226.16 v 271.47 h 226.15 v 271.47 h 226.16 v 271.47 h 226.15 v 271.47 h 226.15 v 271.47 h 226.15 0.01 -0.01 v 271.47 H 3756.16 5000 V 451.629 H 2173.08 1946.93 v 271.473 h 226.15"
         style="fill:#fafaf9;fill-opacity:1;fill-rule:nonzero;stroke:none"
         id="path68" /><path
         d="M 3416.93,723.102 V 994.57 h 226.15 v 271.47 h 226.15 v 271.47 h 226.16 v 271.47 h 226.15 v 271.47 h 226.15 v 271.47 h 226.16 v 0 0 271.47 H 5000 V 2351.92 451.629 H 3416.93 3190.78 v 271.473 h 226.15"
         style="fill:#dadbd8;fill-opacity:1;fill-rule:nonzero;stroke:none"
         id="path70" /><path
         d="m 1933.6,641.66 h 1257.18 v 81.4414 H 1933.6 Z"
         style="fill:#e7e8e5;fill-opacity:1;fill-rule:nonzero;stroke:none"
         id="path72" /><path
         d="m 2159.76,913.129 h 1257.17 v 81.4414 H 2159.76 Z"
         style="fill:#e7e8e5;fill-opacity:1;fill-rule:nonzero;stroke:none"
         id="path74" /><path
         d="m 2385.91,1184.6 h 1257.17 v 81.4375 H 2385.91 Z"
         style="fill:#e7e8e5;fill-opacity:1;fill-rule:nonzero;stroke:none"
         id="path76" /><path
         d="m 2612.06,1456.07 h 1257.17 v 81.4414 H 2612.06 Z"
         style="fill:#e7e8e5;fill-opacity:1;fill-rule:nonzero;stroke:none"
         id="path78" /><path
         d="m 2838.22,1727.54 h 1257.17 v 81.4414 H 2838.22 Z"
         style="fill:#e7e8e5;fill-opacity:1;fill-rule:nonzero;stroke:none"
         id="path80" /><path
         d="m 3064.37,1999.01 h 1257.17 v 81.4375 H 3064.37 Z"
         style="fill:#e7e8e5;fill-opacity:1;fill-rule:nonzero;stroke:none"
         id="path82" /><path
         d="m 3290.52,2270.48 h 1257.17 v 81.4414 H 3290.52 Z"
         style="fill:#e7e8e5;fill-opacity:1;fill-rule:nonzero;stroke:none"
         id="path84" /><path
         d="m 3516.67,2541.95 h 1257.18 v 81.4414 H 3516.67 Z"
         style="fill:#e7e8e5;fill-opacity:1;fill-rule:nonzero;stroke:none"
         id="path86" /><path
         d="M 4438.89,113.238 C 4438.89,50.6992 3570.82,0 2500,0 1429.18,0 561.109,50.6992 561.109,113.238 c 0,62.532 868.071,113.231 1938.891,113.231 1070.82,0 1938.89,-50.699 1938.89,-113.231"
         style="fill:#f3f2f1;fill-opacity:1;fill-rule:nonzero;stroke:none"
         id="path88" /><path
         d="m 3346.95,2689.36 c -1.72,-29.97 -5.22,-57.53 -9.13,-86.05 -3.93,-28.28 -9.21,-56.36 -15.25,-84.36 -11.81,-56.01 -28.08,-111.57 -50.49,-165.73 l -9.03,-20.16 -2.27,-5.04 -1.13,-2.51 c -0.37,-0.82 -0.66,-1.53 -1.53,-3.21 -2.82,-5.63 -6.43,-11.56 -11.54,-17.34 -5.14,-5.71 -11.56,-11.26 -19.14,-15.13 -7.41,-3.86 -15.57,-6.4 -22.85,-7.17 -14.85,-1.76 -26.47,0.86 -36.31,3.77 -19.31,6.32 -33.24,15.04 -46.39,23.94 -12.91,9.08 -24.48,18.67 -35.54,28.5 -43.45,39.98 -79.65,82.81 -112.99,129.36 l 33.18,28.05 c 19.48,-18.49 39.81,-37.15 60.12,-54.87 20.22,-17.89 41.17,-34.83 62.23,-49.98 10.49,-7.56 21.12,-14.62 31.57,-20.44 10.24,-5.82 20.87,-10.59 28.21,-12.04 3.47,-0.72 5.86,-0.3 4.76,-0.06 -0.99,0.45 -5.44,-1.64 -6.37,-2.82 l -0.44,0.14 3.21,8.35 6.98,18.18 c 17.35,49.28 30.44,100.99 40.53,153.56 5.25,26.24 8.98,52.87 12.94,79.42 3.79,26.33 6.83,53.83 9.13,79.12 l 87.54,-5.48"
         style="fill:#f9a8b3;fill-opacity:1;fill-rule:nonzero;stroke:none"
         id="path90" /><path
         d="m 3286.38,2799.4 c -37.27,-9.49 -63.34,-162.85 -63.34,-162.85 l 102.7,-69.84 c 0,0 98.47,154.71 69.8,195.69 -29.86,42.67 -54.78,50.85 -109.16,37"
         style="fill:#406fbf;fill-opacity:1;fill-rule:nonzero;stroke:none"
         id="path92" /><path
         d="m 3286.38,2799.4 c -37.27,-9.49 -63.34,-162.85 -63.34,-162.85 l 102.7,-69.84 c 0,0 98.47,154.71 69.8,195.69 -29.86,42.67 -54.78,50.85 -109.16,37"
         style="fill:#406fbf;fill-opacity:1;fill-rule:nonzero;stroke:none"
         id="path94" /><path
         d="m 3008.46,2502.76 -48.85,77.16 -27.71,-87.68 c 0,0 40.07,-42.02 76.3,-32 l 0.26,42.52"
         style="fill:#f9a8b3;fill-opacity:1;fill-rule:nonzero;stroke:none"
         id="path96" /><path
         d="m 2888,2605.44 -19.23,-74.66 63.13,-38.54 27.71,87.68 -71.61,25.52"
         style="fill:#f9a8b3;fill-opacity:1;fill-rule:nonzero;stroke:none"
         id="path98" /><path
         d="m 3488.01,218.059 h -90.42 l -6.04,209.41 h 90.43 l 6.03,-209.41"
         style="fill:#f9a8b3;fill-opacity:1;fill-rule:nonzero;stroke:none"
         id="path100" /><path
         d="m 4285.94,638.09 -68.92,-58.551 -157.72,140.781 68.91,58.539 157.73,-140.769"
         style="fill:#f9a8b3;fill-opacity:1;fill-rule:nonzero;stroke:none"
         id="path102" /><path
         d="m 4198.13,586.559 66.84,76.511 c 2.43,2.782 6.34,3.352 9.4,1.371 l 68.14,-44.171 c 7.07,-4.579 8.3,-15.168 2.57,-21.489 -23.76,-26.281 -36.55,-37.761 -65.95,-71.402 -18.08,-20.699 -42.35,-52.82 -67.32,-81.399 -24.42,-27.96 -54.56,-5.41 -46.72,8.719 35.14,63.403 26.68,85.653 27.29,116.821 0.11,5.621 2.19,10.972 5.75,15.039"
         style="fill:#17282f;fill-opacity:1;fill-rule:nonzero;stroke:none"
         id="path104" /><path
         d="m 3394.49,228.531 h 101.59 c 3.69,0 6.69,-2.562 7.21,-6.172 l 11.58,-80.379 c 1.2,-8.332 -5.97,-16.218 -14.5,-16.082 -35.42,0.614 -52.48,2.692 -97.16,2.692 -27.48,0 -84.33,-2.852 -122.29,-2.852 -37.12,0 -39.97,37.532 -24.17,40.922 70.86,15.25 98.75,36.262 122.63,56.309 4.3,3.621 9.7,5.562 15.11,5.562"
         style="fill:#17282f;fill-opacity:1;fill-rule:nonzero;stroke:none"
         id="path106" /><path
         d="m 4209.55,706.262 -15.74,14.047 0.04,0.043 15.75,-14.051 -0.05,-0.039"
         style="fill:#a7aaa9;fill-opacity:1;fill-rule:nonzero;stroke:none"
         id="path108" /><path
         d="m 4140.66,647.742 -15.75,14.039 68.9,58.528 15.74,-14.047 -68.89,-58.52"
         style="fill:#d8898c;fill-opacity:1;fill-rule:nonzero;stroke:none"
         id="path110" /><path
         d="m 3286.38,2799.4 c 0,0 -43.08,-15.17 43.21,-545.75 145.73,0 296.34,0 367.25,0 -6.17,149.47 -6.34,241.63 65.1,548.37 0,0 -76.95,16.74 -155.95,20.55 -61.8,2.98 -112.43,4.95 -166.76,-0.01 -71.63,-6.53 -152.85,-23.16 -152.85,-23.16"
         style="fill:#406fbf;fill-opacity:1;fill-rule:nonzero;stroke:none"
         id="path112" /><path
         d="m 3695.88,2277.96 h -15.34 c 4.99,10.61 9.75,21.25 14.33,31.98 0.27,-10.49 0.61,-21.12 1.01,-31.98"
         style="fill:#2251aa;fill-opacity:1;fill-rule:nonzero;stroke:none"
         id="path114" /><path
         d="m 3606,2822.62 c -61.8,2.9 -112.4,4.9 -166.8,-0.1 -9,-0.81 -18.2,-1.81 -27.3,-2.9 -6.1,-10.5 -10.7,-24.6 -5,-39 11.7,-29.1 53.9,-32.5 84.7,-32.5 113.7,0 132.9,66.4 133.7,69.2 l 1.1,3.99 c -6.8,0.51 -13.6,1.01 -20.4,1.31"
         style="fill:#ffffff;fill-opacity:1;fill-rule:nonzero;stroke:none"
         id="path116" /><path
         d="m 3589.47,3010.34 c -10.52,-53.66 -21.02,-151.97 16.52,-187.77 0,0 -14.67,-54.43 -114.37,-54.43 -109.63,0 -52.39,54.42 -52.39,54.42 59.83,14.29 58.29,58.69 47.87,100.37 l 102.37,87.41"
         style="fill:#f9a8b3;fill-opacity:1;fill-rule:nonzero;stroke:none"
         id="path118" /><path
         d="m 3527.14,3302.15 c -9.3,31.43 -17.33,81.1 38.85,103.04 -21.86,26.79 -27.21,77.2 -0.35,107.15 26.86,29.94 67.98,18.87 67.98,18.87 0,0 11.99,73.1 100.88,60.31 88.89,-12.8 49.3,-71.65 49.3,-71.65 0,0 121.33,24.03 129.43,-90.26 8.09,-114.29 -61.55,-100.19 -61.55,-100.19 0,0 54.11,-45.37 24.15,-95.27 -29.96,-49.91 -99.31,-32.71 -99.31,-32.71 0,0 -32.6,-88.18 -109.38,-38 -76.78,50.17 -140,138.71 -140,138.71"
         style="fill:#17282f;fill-opacity:1;fill-rule:nonzero;stroke:none"
         id="path120" /><path
         d="m 3346.97,3235.79 c -30.07,-38.73 -16.79,-82.69 9.72,-99.63 64.51,-41.2 157.8,131.51 133.54,152.22 -24.25,20.7 -113.19,-13.86 -143.26,-52.59"
         style="fill:#17282f;fill-opacity:1;fill-rule:nonzero;stroke:none"
         id="path122" /><path
         d="m 3617.9,3328.01 c -42.43,17.1 -85.38,-0.76 -98.82,-26.6 -32.71,-62.88 115.79,-176.21 158.8,-97.57 25.54,46.68 -16.25,106.54 -59.98,124.17"
         style="fill:#406fbf;fill-opacity:1;fill-rule:nonzero;stroke:none"
         id="path124" /><path
         d="m 3599.78,3135.89 c 3.07,-89.69 6.29,-127.59 -34.36,-177.67 -61.14,-75.34 -171.98,-59.49 -201.78,27.47 -26.83,78.28 -27.35,211.8 56.53,255.65 82.64,43.2 176.54,-15.76 179.61,-105.45"
         style="fill:#f9a8b3;fill-opacity:1;fill-rule:nonzero;stroke:none"
         id="path126" /><path
         d="m 3586.45,3088.56 c -39.68,14.87 -50.05,61.6 -43.51,79.57 -19.83,0.83 -63.76,7.98 -80.2,32.82 -31.2,-19.62 -97.1,-39.94 -104.28,-6.76 -7.16,33.18 92.38,118.95 167.55,125.52 89.37,7.81 177.63,-80.1 154.84,-164.13 -22.79,-84.03 -94.4,-67.02 -94.4,-67.02"
         style="fill:#17282f;fill-opacity:1;fill-rule:nonzero;stroke:none"
         id="path128" /><path
         d="m 3329.59,2253.65 c 0,0 -71.32,-696.55 -65.39,-972.3 6.16,-286.83 111.26,-940.979 111.26,-940.979 h 122.27 c 0,0 -19.35,637.399 -8.54,919.079 11.78,307.09 109.33,994.2 109.33,994.2 h -268.93"
         style="fill:#17282f;fill-opacity:1;fill-rule:nonzero;stroke:none"
         id="path130" /><path
         d="m 3508.33,335.988 h -143.47 l -10.52,45.774 160.66,5.59 -6.67,-51.364"
         style="fill:#406fbf;fill-opacity:1;fill-rule:nonzero;stroke:none"
         id="path132" /><path
         d="m 3426.58,2253.65 c 0,0 83.19,-724.15 146.01,-956.64 74.59,-276.02 537.89,-647.479 537.89,-647.479 l 93.98,79.828 c 0,0 -335.8,403.511 -392.83,548.931 -121.71,310.34 -17.52,772.84 -114.79,975.36 h -270.26"
         style="fill:#17282f;fill-opacity:1;fill-rule:nonzero;stroke:none"
         id="path134" /><path
         d="m 4219.47,733.648 -116.59,-99.039 -43.55,26.102 131.89,122.687 28.25,-49.75"
         style="fill:#406fbf;fill-opacity:1;fill-rule:nonzero;stroke:none"
         id="path136" /><path
         d="m 3466.92,3098 c 0.7,-7.26 -2.58,-13.52 -7.33,-13.97 -4.74,-0.45 -9.16,5.06 -9.85,12.32 -0.7,7.26 2.59,13.52 7.33,13.97 4.75,0.46 9.16,-5.06 9.85,-12.32"
         style="fill:#17282f;fill-opacity:1;fill-rule:nonzero;stroke:none"
         id="path138" /><path
         d="m 3384.86,3090.14 c 0.7,-7.26 -2.59,-13.52 -7.33,-13.98 -4.75,-0.45 -9.16,5.07 -9.86,12.33 -0.69,7.26 2.59,13.51 7.34,13.97 4.74,0.45 9.16,-5.07 9.85,-12.32"
         style="fill:#17282f;fill-opacity:1;fill-rule:nonzero;stroke:none"
         id="path140" /><path
         d="m 3377.14,3102.25 -17.92,3.36 c 0,0 10.25,-12.76 17.92,-3.36"
         style="fill:#17282f;fill-opacity:1;fill-rule:nonzero;stroke:none"
         id="path142" /><path
         d="m 3407.75,3079.74 c 0,0 -9.33,-32.44 -21.44,-48.82 10.44,-8.03 26.34,-2.38 26.34,-2.38 l -4.9,51.2"
         style="fill:#f46878;fill-opacity:1;fill-rule:nonzero;stroke:none"
         id="path144" /><path
         d="m 3453.02,3004.62 c -3.7,-1.03 -7.72,-1.8 -12.08,-2.22 -1.17,-0.11 -2.22,0.75 -2.33,1.93 -0.11,1.17 0.72,2.21 1.93,2.34 31.84,3.03 44.61,26.73 44.73,26.97 0.55,1.06 1.85,1.46 2.89,0.91 1.05,-0.55 1.46,-1.84 0.91,-2.89 -0.48,-0.93 -10.75,-20.02 -36.05,-27.04"
         style="fill:#17282f;fill-opacity:1;fill-rule:nonzero;stroke:none"
         id="path146" /><path
         d="m 3620.96,3073.51 c -2.15,-18.48 -12.63,-34.24 -24.77,-43.54 -18.26,-13.98 -35.91,0.3 -37.97,21.99 -1.85,19.52 5.42,50.33 27.18,55.79 21.44,5.39 38.02,-13.11 35.56,-34.24"
         style="fill:#f9a8b3;fill-opacity:1;fill-rule:nonzero;stroke:none"
         id="path148" /><path
         d="m 3475.71,3149.45 c -1.09,-0.3 -2.31,-0.17 -3.36,0.46 -16.38,9.82 -30.62,3.1 -30.79,3.02 -2.11,-1 -4.69,-0.14 -5.73,1.99 -1.03,2.13 -0.14,4.69 1.99,5.72 0.74,0.36 18.62,8.82 38.95,-3.39 2.02,-1.21 2.68,-3.84 1.46,-5.87 -0.59,-0.98 -1.5,-1.64 -2.52,-1.93"
         style="fill:#17282f;fill-opacity:1;fill-rule:nonzero;stroke:none"
         id="path150" /><path
         d="m 3344.71,3124.52 c -1.02,-0.29 -2.15,-0.2 -3.16,0.34 -2.09,1.12 -2.87,3.72 -1.76,5.8 11.19,20.88 30.87,22.81 31.71,22.88 2.36,0.2 4.43,-1.54 4.63,-3.9 0.21,-2.35 -1.54,-4.42 -3.89,-4.64 -0.77,-0.06 -16,-1.78 -24.9,-18.38 -0.57,-1.08 -1.54,-1.8 -2.63,-2.1"
         style="fill:#17282f;fill-opacity:1;fill-rule:nonzero;stroke:none"
         id="path152" /><path
         d="m 3799.42,2704.47 c 20.78,-50.61 37.83,-100.62 52.67,-152.6 14.62,-51.9 27.34,-104.56 33.17,-160.4 1.72,-13.79 2.2,-28.24 2.87,-42.51 l 0.06,-1.34 v -2.23 l -0.12,-4.61 c -0.21,-2.91 -0.47,-5.85 -0.92,-8.48 -0.8,-5.44 -2.03,-10.26 -3.38,-14.82 -2.73,-9.06 -6.18,-16.85 -9.84,-24.08 -14.78,-28.42 -32.39,-50.01 -50.68,-70.91 -37.07,-40.99 -76.54,-76.51 -119.68,-109.24 l -29.3,32.09 c 33.33,38.85 66.97,78.8 95.4,119.63 13.99,20.24 27.45,41.36 35.05,60.41 1.82,4.67 3.17,9.1 3.94,12.68 0.35,1.75 0.58,3.34 0.57,4.4 l -0.04,1.3 -0.1,0.3 -0.15,1.33 c -1.31,11.86 -2.25,23.58 -4.48,35.7 -7.5,48.18 -21.19,97.31 -35.85,145.94 -15.31,48.36 -32.39,97.52 -50.38,144.25 l 81.19,33.19"
         style="fill:#f9a8b3;fill-opacity:1;fill-rule:nonzero;stroke:none"
         id="path154" /><path
         d="m 3761.94,2802.02 c 36.79,-11.18 80.98,-137.88 80.98,-137.88 l -142.74,-102.06 c 0,0 -52.06,105.76 -36.6,153.32 16.1,49.53 56.37,99.39 98.36,86.62"
         style="fill:#406fbf;fill-opacity:1;fill-rule:nonzero;stroke:none"
         id="path156" /><path
         d="m 3769.59,2611.71 c 5.19,62.71 4.33,125.68 -2.49,188.04 35.63,-20.38 75.82,-135.61 75.82,-135.61 l -73.33,-52.43"
         style="fill:#2251aa;fill-opacity:1;fill-rule:nonzero;stroke:none"
         id="path158" /><path
         d="m 4196.64,570.43 c -12.46,-3.981 -28.64,-10.879 -30.4,-16.688 -0.22,-0.742 -0.32,-1.754 0.87,-3.133 2.22,-2.558 4.59,-3.648 7.18,-3.359 6.16,0.699 14.36,9.262 22.35,23.18 z m -23.21,-27.52 c -3.54,0 -6.75,1.641 -9.56,4.899 -2.39,2.761 -2.26,5.421 -1.73,7.171 3.34,11.051 34.76,20.071 38.33,21.059 l 2.24,-0.719 0.22,-2.34 c -5.61,-10.64 -16.74,-28.691 -28.15,-29.992 l -1.35,-0.078"
         style="fill:#406fbf;fill-opacity:1;fill-rule:nonzero;stroke:none"
         id="path160" /><path
         d="m 4170.82,587.52 -1.37,-0.09 c -2.22,-0.289 -3.9,-1.301 -5.12,-3.098 -1.55,-2.281 -1.02,-3.523 -0.39,-4.34 3.86,-5.031 21.64,-6.941 32.47,-4.992 -6.47,5.031 -17.8,12.52 -25.59,12.52 z m 15.89,-17.461 c -10.43,0 -22.15,2.089 -26.16,7.312 -1.22,1.578 -2.8,4.899 0.24,9.359 1.92,2.84 4.66,4.5 8.11,4.95 12.97,1.652 32.71,-15.36 33.55,-16.09 l 0.69,-2.02 -1.39,-1.621 c -3.43,-1.187 -9.02,-1.89 -15.04,-1.89"
         style="fill:#406fbf;fill-opacity:1;fill-rule:nonzero;stroke:none"
         id="path162" /><path
         d="m 3344.43,231.441 c -1.66,0 -3.02,-0.242 -4,-0.781 -0.88,-0.48 -1.32,-1.199 -1.42,-2.32 -0.26,-2.891 0.55,-5.129 2.47,-6.86 5.48,-4.929 20.37,-5.8 40.4,-2.46 -12.41,5.949 -28.89,12.421 -37.45,12.421 m 16.11,-18.711 c -8.99,0 -17.28,1.391 -21.93,5.571 -2.95,2.648 -4.25,6.16 -3.86,10.418 0.22,2.551 1.48,4.531 3.62,5.703 11.08,6.078 47.13,-12.34 51.2,-14.461 0.81,-0.41 1.26,-1.301 1.13,-2.199 -0.13,-0.903 -0.81,-1.621 -1.7,-1.801 -7.68,-1.52 -18.5,-3.231 -28.46,-3.231"
         style="fill:#406fbf;fill-opacity:1;fill-rule:nonzero;stroke:none"
         id="path164" /><path
         d="m 3367.04,252.578 -1.29,-0.066 c -3.91,-0.403 -4.17,-1.961 -4.25,-2.473 -1,-6.148 13.47,-21.488 24.45,-28.148 -1.05,7.089 -4.06,21.691 -11.52,27.898 -2.24,1.871 -4.67,2.789 -7.39,2.789 m 21.54,-36.656 -0.88,0.187 c -10.77,4.871 -32.1,24.379 -30.42,34.621 0.39,2.418 2.11,5.442 8.04,6.04 4.42,0.41 8.38,-0.801 11.86,-3.688 11.37,-9.473 13.45,-33.812 13.54,-34.844 l -0.9,-1.929 -1.24,-0.387"
         style="fill:#406fbf;fill-opacity:1;fill-rule:nonzero;stroke:none"
         id="path166" /><path
         d="m 3702.34,2275.2 9.39,-32.87 c 1.28,-2.55 -1.74,-5.15 -5.98,-5.15 h -377.97 c -3.31,0 -6.05,1.62 -6.27,3.7 l -3.31,32.87 c -0.23,2.28 2.64,4.21 6.27,4.21 h 371.89 c 2.73,0 5.15,-1.12 5.98,-2.76"
         style="fill:#406fbf;fill-opacity:1;fill-rule:nonzero;stroke:none"
         id="path168" /><path
         d="m 3705.75,2237.18 h -45.57 c 7.14,13.49 13.91,27.06 20.36,40.78 h 15.82 c 2.73,0 5.15,-1.12 5.98,-2.76 l 9.39,-32.87 c 0.2,-0.4 0.29,-0.8 0.3,-1.19 0.01,-2.11 -2.7,-3.96 -6.28,-3.96"
         style="fill:#6d97d6;fill-opacity:1;fill-rule:nonzero;stroke:none"
         id="path170" /><path
         d="m 3652.39,2233.62 h 9.96 c 1.98,0 3.5,1.02 3.36,2.27 l -4.67,42.71 c -0.14,1.25 -1.87,2.27 -3.86,2.27 h -9.96 c -1.98,0 -3.49,-1.02 -3.35,-2.27 l 4.67,-42.71 c 0.13,-1.25 1.87,-2.27 3.85,-2.27"
         style="fill:#17282f;fill-opacity:1;fill-rule:nonzero;stroke:none"
         id="path172" /><path
         d="m 3355.77,2233.62 h 9.96 c 1.98,0 3.49,1.02 3.36,2.27 l -4.67,42.71 c -0.14,1.25 -1.88,2.27 -3.86,2.27 h -9.96 c -1.98,0 -3.49,-1.02 -3.36,-2.27 l 4.67,-42.71 c 0.14,-1.25 1.87,-2.27 3.86,-2.27"
         style="fill:#17282f;fill-opacity:1;fill-rule:nonzero;stroke:none"
         id="path174" /><path
         d="m 3504.08,2233.62 h 9.96 c 1.98,0 3.49,1.02 3.36,2.27 l -4.67,42.71 c -0.14,1.25 -1.87,2.27 -3.86,2.27 h -9.96 c -1.98,0 -3.49,-1.02 -3.36,-2.27 l 4.67,-42.71 c 0.14,-1.25 1.88,-2.27 3.86,-2.27"
         style="fill:#17282f;fill-opacity:1;fill-rule:nonzero;stroke:none"
         id="path176" /><path
         d="m 3459.21,3110.12 -17.92,3.36 c 0,0 10.25,-12.77 17.92,-3.36"
         style="fill:#17282f;fill-opacity:1;fill-rule:nonzero;stroke:none"
         id="path178" /><path
         d="m 3303.85,2085.62 h -370.06 l 123.8,281.17 c 9.24,-9.46 18.81,-18.77 28.76,-27.92 11.06,-9.83 22.63,-19.42 35.54,-28.5 13.15,-8.9 27.08,-17.62 46.39,-23.94 7.63,-2.26 16.34,-4.34 26.8,-4.34 3.02,0 6.18,0.17 9.51,0.57 7.28,0.77 15.44,3.31 22.85,7.17 7.58,3.87 14,9.42 19.14,15.13 5.11,5.78 8.72,11.71 11.54,17.34 0.87,1.68 1.16,2.39 1.53,3.21 l 1.13,2.51 2.27,5.04 9.03,20.16 c 11.46,27.71 21.32,55.79 29.8,84.1 3.62,-26.49 7.7,-54.9 12.3,-85.4 h -23.66 v -81.44 h 13.33 v -184.86 m -111.58,272.93 c -0.25,0 -0.54,0.01 -0.85,0.03 0.65,0.23 1.24,0.37 1.64,0.37 0.15,0 0.28,-0.02 0.37,-0.06 0.64,-0.14 0.1,-0.34 -1.16,-0.34 m -4.52,0.6 c -7.3,1.64 -17.47,6.26 -27.29,11.84 -10.45,5.82 -21.08,12.88 -31.57,20.44 -15.13,10.88 -30.2,22.69 -44.99,35.11 l 267.79,608.15 c 2.8,-17.64 6.91,-34.3 11.95,-49 16.87,-49.24 59.72,-75.67 104.82,-75.67 7.02,0 14.09,0.63 21.13,1.93 1.11,-5.47 1.98,-10.93 2.51,-16.32 0.07,-0.75 0.13,-1.5 0.18,-2.25 0.01,0 0.02,0 0.02,0 2.53,-31.42 -7.36,-59.9 -53.07,-70.82 v 0 c -44.95,-4.1 -93.68,-12.17 -123.74,-17.62 -8.73,-0.92 -18.34,-2.8 -29.11,-5.54 -37.27,-9.49 -63.34,-162.85 -63.34,-162.85 v 0 0 0 l 27.54,-18.73 c -0.1,-0.7 -0.2,-1.4 -0.3,-2.1 -3.96,-26.55 -7.69,-53.18 -12.94,-79.42 -10.09,-52.57 -23.18,-104.28 -40.53,-153.56 l -6.98,-18.18 -2.08,-5.41 m 496.96,455.98 c -17.95,2.41 -37.84,4.66 -58.31,6.18 v 0 c -6.8,0.51 -13.6,1.01 -20.4,1.31 -0.02,0 -0.04,0 -0.07,0 -32.89,31.47 -28.82,111.02 -20.23,166.27 6.98,13.83 11.06,27.78 13.31,43.38 7.07,6.14 13.36,14.49 17.46,24.24 34.09,-77.24 56.92,-158.55 68.24,-241.38"
         style="fill:#cfe0f4;fill-opacity:1;fill-rule:nonzero;stroke:none"
         id="path180" /><path
         d="m 3313.41,2085.62 h -9.56 v 184.86 h 14.68 l 2.98,-29.6 c 0.22,-2.08 2.96,-3.7 6.27,-3.7 h 0.15 c -2.58,-25.8 -7.94,-80.24 -14.52,-151.56"
         style="fill:#caddf3;fill-opacity:1;fill-rule:nonzero;stroke:none"
         id="path182" /><path
         d="m 3318.53,2270.48 h -28.01 v 81.44 h 23.66 c 3.52,-23.4 7.35,-48.04 11.49,-73.96 h -1.2 c -3.49,0 -6.27,-1.78 -6.28,-3.94 0,-0.09 0,-0.18 0.01,-0.27 l 0.33,-3.27"
         style="fill:#bdd1ef;fill-opacity:1;fill-rule:nonzero;stroke:none"
         id="path184" /><path
         d="m 3195.08,2282.09 c -10.46,0 -19.17,2.08 -26.8,4.34 -19.31,6.32 -33.24,15.04 -46.39,23.94 -12.91,9.08 -24.48,18.67 -35.54,28.5 -9.95,9.15 -19.52,18.46 -28.76,27.92 l 26.31,59.75 c 14.79,-12.42 29.86,-24.23 44.99,-35.11 10.49,-7.56 21.12,-14.62 31.57,-20.44 9.82,-5.58 19.99,-10.2 27.29,-11.84 l 2.08,5.41 6.98,18.18 c 17.35,49.28 30.44,100.99 40.53,153.56 5.25,26.24 8.98,52.87 12.94,79.42 0.1,0.7 0.2,1.4 0.3,2.1 l 10.55,-7.17 -0.02,-0.08 22.01,-14.93 c 4.08,-43.05 10.12,-95.19 18.76,-158.32 -8.48,-28.31 -18.34,-56.39 -29.8,-84.1 l -9.03,-20.16 -2.27,-5.04 -1.13,-2.51 c -0.37,-0.82 -0.66,-1.53 -1.53,-3.21 -2.82,-5.63 -6.43,-11.56 -11.54,-17.34 -5.14,-5.71 -11.56,-11.26 -19.14,-15.13 -7.41,-3.86 -15.57,-6.4 -22.85,-7.17 -3.33,-0.4 -6.49,-0.57 -9.51,-0.57 m -3.66,76.49 c 0.31,-0.02 0.6,-0.03 0.85,-0.03 1.26,0 1.8,0.2 1.16,0.34 -0.09,0.04 -0.22,0.06 -0.37,0.06 -0.4,0 -0.99,-0.14 -1.64,-0.37"
         style="fill:#e4a0c7;fill-opacity:1;fill-rule:nonzero;stroke:none"
         id="path186" /><path
         d="m 3261.13,2610.65 -38.09,25.9 c 0,0 26.07,153.36 63.34,162.85 10.77,2.74 20.38,4.62 29.11,5.54 -17.84,-3.23 -29.11,-5.54 -29.11,-5.54 0,0 -10.75,-3.78 -10.75,-73.7 0,-9.71 0.2,-20.69 0.67,-33.11 l -15.17,-81.94"
         style="fill:#2a5ab1;fill-opacity:1;fill-rule:nonzero;stroke:none"
         id="path188" /><path
         d="m 3283.12,2595.64 -22.01,14.93 0.02,0.08 21.99,-14.96 c 0,-0.01 0,-0.03 0,-0.05"
         style="fill:#97769a;fill-opacity:1;fill-rule:nonzero;stroke:none"
         id="path190" /><path
         d="m 3283.12,2595.69 -21.99,14.96 15.17,81.94 c 0.98,-25.66 3.08,-57.47 6.82,-96.9"
         style="fill:#254b94;fill-opacity:1;fill-rule:nonzero;stroke:none"
         id="path192" /><path
         d="m 3591.33,2277.96 h -78.53 l -0.07,0.64 c -0.14,1.25 -1.87,2.27 -3.86,2.27 h -9.96 c -1.98,0 -3.49,-1.02 -3.36,-2.27 l 0.07,-0.64 h -131.13 l -0.07,0.64 c -0.14,1.25 -1.88,2.27 -3.86,2.27 h -9.96 c -1.98,0 -3.49,-1.02 -3.36,-2.27 l 0.07,-0.64 h -21.64 c -9.54,59.69 -17.39,112.54 -23.79,159.36 -8.64,63.13 -14.68,115.27 -18.76,158.32 -5.55,58.55 -7.49,100.29 -7.49,130.06 0,69.92 10.75,73.7 10.75,73.7 0,0 81.22,16.63 152.85,23.16 v 0 0 c 0,0 -0.02,-0.01 -0.05,-0.04 -8.99,-0.81 -18.19,-1.81 -27.28,-2.9 -6.1,-10.5 -10.7,-24.6 -5,-39 11.7,-29.1 53.9,-32.5 84.7,-32.5 113.7,0 132.9,66.4 133.7,69.2 l 1.1,3.99 c 20.47,-1.52 40.36,-3.77 58.31,-6.18 2.19,-15.98 3.95,-32.08 5.27,-48.15 -11.31,-15.16 -20.49,-33.39 -26.4,-51.58 -1.99,-6.13 -2.86,-13.23 -2.87,-20.94 -0.02,-32.21 15.05,-75.16 26.58,-103.28 -12.23,-107.68 -44.04,-213.96 -95.96,-313.22"
         style="fill:#2a5ab1;fill-opacity:1;fill-rule:nonzero;stroke:none"
         id="path194" /><path
         d="m 3491.6,2748.12 c -30.8,0 -73,3.4 -84.7,32.5 -5.7,14.4 -1.1,28.5 5,39 9.09,1.09 18.29,2.09 27.28,2.9 -1.9,-1.85 -55.27,-54.38 52.44,-54.38 99.7,0 114.37,54.43 114.37,54.43 -0.02,0.02 -0.04,0.04 -0.06,0.05 0.03,0 0.05,0 0.07,0 6.8,-0.3 13.6,-0.8 20.4,-1.31 v 0 l -1.1,-3.99 c -0.8,-2.8 -20,-69.2 -133.7,-69.2"
         style="fill:#cfe0f5;fill-opacity:1;fill-rule:nonzero;stroke:none"
         id="path196" /><path
         d="m 3491.62,2768.14 c -107.71,0 -54.34,52.53 -52.44,54.38 0.03,0.03 0.05,0.04 0.05,0.04 v 0 0 c 45.71,10.92 55.6,39.4 53.07,70.82 21.1,3.06 49.46,24.67 55.61,46.8 6.17,5.29 12.04,11.3 17.51,18.04 8.58,10.57 15.2,20.59 20.28,30.67 -8.59,-55.25 -12.66,-134.8 20.23,-166.27 0.02,-0.01 0.04,-0.03 0.06,-0.05 0,0 -14.67,-54.43 -114.37,-54.43 m 0.48,127.49 c -0.53,5.39 -1.4,10.85 -2.51,16.32 0.02,0 0.05,0.01 0.07,0.01 1.1,-5.47 1.95,-10.94 2.44,-16.33"
         style="fill:#e4a0c7;fill-opacity:1;fill-rule:nonzero;stroke:none"
         id="path198" /><path
         d="m 3492.28,2893.38 c -0.05,0.75 -0.11,1.5 -0.18,2.25 0.08,-0.75 0.14,-1.5 0.2,-2.25 0,0 -0.01,0 -0.02,0"
         style="fill:#a1b4d4;fill-opacity:1;fill-rule:nonzero;stroke:none"
         id="path200" /><path
         d="m 3492.3,2893.38 c -0.06,0.75 -0.12,1.5 -0.2,2.25 -0.49,5.39 -1.34,10.86 -2.44,16.33 20.44,3.77 40.6,13.07 58.25,28.22 -6.15,-22.13 -34.51,-43.74 -55.61,-46.8"
         style="fill:#b083a9;fill-opacity:1;fill-rule:nonzero;stroke:none"
         id="path202" /><path
         d="m 3468.46,2910.02 c -45.1,0 -87.95,26.43 -104.82,75.67 -5.04,14.7 -9.15,31.36 -11.95,49 l 19.59,44.5 c 1.61,-1.91 3.61,-3.05 5.7,-3.05 0.18,0 0.37,0.01 0.55,0.02 4.74,0.46 8.03,6.72 7.33,13.98 -0.4,4.22 -2.07,7.86 -4.32,10.07 l 35.54,80.72 c 17.14,4.65 34.52,12.38 46.66,20.02 16.44,-24.84 60.37,-31.99 80.2,-32.82 -5.52,-15.18 1.02,-50.89 27.11,-70.57 -9.84,-12.12 -13.14,-31.71 -11.83,-45.6 1.49,-15.72 11.17,-27.55 23.34,-27.55 4.62,0 9.6,1.71 14.63,5.56 0.95,0.73 1.89,1.49 2.82,2.3 -2.25,-15.6 -6.33,-29.55 -13.31,-43.38 -5.08,-10.08 -11.7,-20.1 -20.28,-30.67 -5.47,-6.74 -11.34,-12.75 -17.51,-18.04 -17.65,-15.15 -37.81,-24.45 -58.25,-28.22 -0.02,0 -0.05,-0.01 -0.07,-0.01 -7.04,-1.3 -14.11,-1.93 -21.13,-1.93 m 18.71,124.77 c -0.77,0 -1.51,-0.41 -1.9,-1.15 -0.12,-0.24 -12.89,-23.94 -44.73,-26.97 -1.21,-0.13 -2.04,-1.17 -1.93,-2.34 0.11,-1.11 1.04,-1.94 2.13,-1.94 0.07,0 0.14,0 0.2,0.01 4.36,0.42 8.38,1.19 12.08,2.22 25.3,7.02 35.57,26.11 36.05,27.04 0.55,1.05 0.14,2.34 -0.91,2.89 -0.31,0.16 -0.65,0.24 -0.99,0.24 m -79.42,44.95 c 0,0 -9.33,-32.44 -21.44,-48.82 4.33,-3.33 9.61,-4.31 14.3,-4.31 6.61,0 12.04,1.93 12.04,1.93 l -4.9,51.2 m 44.09,26.97 c -1.64,-2.59 -2.49,-6.32 -2.1,-10.36 0.67,-6.97 4.77,-12.35 9.3,-12.35 0.18,0 0.37,0.02 0.55,0.03 4.75,0.45 8.03,6.71 7.33,13.97 -0.64,6.73 -4.48,11.97 -8.83,12.33 l -16.8,3.15 c 0,0 4.95,-6.17 10.55,-6.77 m 1.84,48.54 c 5.25,0 11.77,-1.2 18.67,-5.34 0.7,-0.41 1.46,-0.61 2.21,-0.61 0.39,0 0.77,0.05 1.15,0.15 1.02,0.29 1.93,0.95 2.52,1.93 1.22,2.03 0.56,4.66 -1.46,5.87 -8.45,5.07 -16.47,6.58 -23.02,6.58 -9.21,0 -15.5,-2.98 -15.93,-3.19 -2.13,-1.03 -3.02,-3.59 -1.99,-5.72 0.75,-1.53 2.29,-2.4 3.88,-2.4 0.62,0 1.25,0.13 1.85,0.41 0.1,0.05 4.91,2.32 12.12,2.32"
         style="fill:#e4a0c7;fill-opacity:1;fill-rule:nonzero;stroke:none"
         id="path204" /><path
         d="m 3570.05,3097.56 c -26.09,19.68 -32.63,55.39 -27.11,70.57 -19.83,0.83 -63.76,7.98 -80.2,32.82 -12.14,-7.64 -29.52,-15.37 -46.66,-20.02 l 48.71,110.62 c 50.48,-56.34 92.71,-117.83 126.62,-182.89 -1.95,-0.1 -3.96,-0.39 -6.01,-0.91 -6.28,-1.57 -11.36,-5.27 -15.35,-10.19"
         style="fill:#1e3e61;fill-opacity:1;fill-rule:nonzero;stroke:none"
         id="path206" /><path
         d="m 3446.91,2085.62 h -133.5 c 6.58,71.32 11.94,125.76 14.52,151.56 h 23.84 l 0.14,-1.29 c 0.14,-1.25 1.87,-2.27 3.86,-2.27 h 9.96 c 1.98,0 3.49,1.02 3.36,2.27 l -0.14,1.29 h 59.54 c 3.04,-25.87 9.53,-80.49 18.42,-151.56"
         style="fill:#1e3e61;fill-opacity:1;fill-rule:nonzero;stroke:none"
         id="path208" /><path
         d="m 3456.05,2085.62 h -9.14 c -8.89,71.07 -15.38,125.69 -18.42,151.56 h 71.59 l 0.14,-1.29 c 0.14,-1.25 1.88,-2.27 3.86,-2.27 h 9.96 c 1.98,0 3.49,1.02 3.36,2.27 l -0.14,1.29 h 51.36 c -22.96,-38.81 -49.15,-76.39 -78.58,-112.36 -11.02,-13.46 -22.37,-26.55 -33.99,-39.2"
         style="fill:#1e3e61;fill-opacity:1;fill-rule:nonzero;stroke:none"
         id="path210" /><path
         d="m 3459.04,3084 c -4.53,0 -8.63,5.38 -9.3,12.35 -0.39,4.04 0.46,7.77 2.1,10.36 0.28,-0.03 0.57,-0.05 0.86,-0.05 2.19,0 4.44,0.93 6.51,3.46 l -1.12,0.21 c 4.35,-0.36 8.19,-5.6 8.83,-12.33 0.7,-7.26 -2.58,-13.52 -7.33,-13.97 -0.18,-0.01 -0.37,-0.03 -0.55,-0.03"
         style="fill:#1e3e61;fill-opacity:1;fill-rule:nonzero;stroke:none"
         id="path212" /><path
         d="m 3376.98,3076.14 c -2.09,0 -4.09,1.14 -5.7,3.05 l 9.26,21.02 c 2.25,-2.21 3.92,-5.85 4.32,-10.07 0.7,-7.26 -2.59,-13.52 -7.33,-13.98 -0.18,-0.01 -0.37,-0.02 -0.55,-0.02"
         style="fill:#1e3e61;fill-opacity:1;fill-rule:nonzero;stroke:none"
         id="path214" /><path
         d="m 3400.61,3026.61 c -4.69,0 -9.97,0.98 -14.3,4.31 12.11,16.38 21.44,48.82 21.44,48.82 l 4.9,-51.2 c 0,0 -5.43,-1.93 -12.04,-1.93"
         style="fill:#e06896;fill-opacity:1;fill-rule:nonzero;stroke:none"
         id="path216" /><path
         d="m 3440.74,3002.39 c -1.09,0 -2.02,0.83 -2.13,1.94 -0.11,1.17 0.72,2.21 1.93,2.34 31.84,3.03 44.61,26.73 44.73,26.97 0.39,0.74 1.13,1.15 1.9,1.15 0.34,0 0.68,-0.08 0.99,-0.24 1.05,-0.55 1.46,-1.84 0.91,-2.89 -0.48,-0.93 -10.75,-20.02 -36.05,-27.04 -3.7,-1.03 -7.72,-1.8 -12.08,-2.22 -0.06,-0.01 -0.13,-0.01 -0.2,-0.01"
         style="fill:#1e3e61;fill-opacity:1;fill-rule:nonzero;stroke:none"
         id="path218" /><path
         d="m 3581.56,3024.41 c -12.17,0 -21.85,11.83 -23.34,27.55 -1.31,13.89 1.99,33.48 11.83,45.6 3.99,4.92 9.07,8.62 15.35,10.19 2.05,0.52 4.06,0.81 6.01,0.91 8.93,-17.14 17.3,-34.55 25.06,-52.15 -4.1,-9.75 -10.39,-18.1 -17.46,-24.24 -0.93,-0.81 -1.87,-1.57 -2.82,-2.3 -5.03,-3.85 -10.01,-5.56 -14.63,-5.56"
         style="fill:#e4a0c7;fill-opacity:1;fill-rule:nonzero;stroke:none"
         id="path220" /><path
         d="m 3474.56,3149.3 c -0.75,0 -1.51,0.2 -2.21,0.61 -6.9,4.14 -13.42,5.34 -18.67,5.34 -7.21,0 -12.02,-2.27 -12.12,-2.32 -0.6,-0.28 -1.23,-0.41 -1.85,-0.41 -1.59,0 -3.13,0.87 -3.88,2.4 -1.03,2.13 -0.14,4.69 1.99,5.72 0.43,0.21 6.72,3.19 15.93,3.19 6.55,0 14.57,-1.51 23.02,-6.58 2.02,-1.21 2.68,-3.84 1.46,-5.87 -0.59,-0.98 -1.5,-1.64 -2.52,-1.93 -0.38,-0.1 -0.76,-0.15 -1.15,-0.15"
         style="fill:#1e3e61;fill-opacity:1;fill-rule:nonzero;stroke:none"
         id="path222" /><path
         d="m 3687.29,2591.18 c -11.53,28.12 -26.6,71.07 -26.58,103.28 0.01,7.71 0.88,14.81 2.87,20.94 5.91,18.19 15.09,36.42 26.4,51.58 4.82,-58.41 3.95,-117.31 -2.69,-175.8"
         style="fill:#2a5ab1;fill-opacity:1;fill-rule:nonzero;stroke:none"
         id="path224" /><path
         d="m 3568.62,2237.18 h -51.36 l -4.46,40.78 h 78.53 c -7.19,-13.75 -14.75,-27.32 -22.71,-40.78 m -68.54,0 h -131.13 l -4.46,40.78 h 131.13 l 4.46,-40.78 m -148.31,0 h -23.99 c -3.31,0 -6.05,1.62 -6.27,3.7 l -3.31,32.87 c -0.01,0.09 -0.01,0.18 -0.01,0.27 0.01,2.16 2.79,3.94 6.28,3.94 h 22.84 l 4.46,-40.78"
         style="fill:#648ed1;fill-opacity:1;fill-rule:nonzero;stroke:none"
         id="path226" /><path
         d="m 3365.73,2233.62 h -9.96 c -1.99,0 -3.72,1.02 -3.86,2.27 l -0.14,1.29 -4.46,40.78 -0.07,0.64 c -0.13,1.25 1.38,2.27 3.36,2.27 h 9.96 c 1.98,0 3.72,-1.02 3.86,-2.27 l 0.07,-0.64 4.46,-40.78 0.14,-1.29 c 0.13,-1.25 -1.38,-2.27 -3.36,-2.27"
         style="fill:#1e3e61;fill-opacity:1;fill-rule:nonzero;stroke:none"
         id="path228" /><path
         d="m 3514.04,2233.62 h -9.96 c -1.98,0 -3.72,1.02 -3.86,2.27 l -0.14,1.29 -4.46,40.78 -0.07,0.64 c -0.13,1.25 1.38,2.27 3.36,2.27 h 9.96 c 1.99,0 3.72,-1.02 3.86,-2.27 l 0.07,-0.64 4.46,-40.78 0.14,-1.29 c 0.13,-1.25 -1.38,-2.27 -3.36,-2.27"
         style="fill:#1e3e61;fill-opacity:1;fill-rule:nonzero;stroke:none"
         id="path230" /><path
         d="m 3452.7,3106.66 c -0.29,0 -0.58,0.02 -0.86,0.05 -5.6,0.6 -10.55,6.77 -10.55,6.77 l 16.8,-3.15 1.12,-0.21 c -2.07,-2.53 -4.32,-3.46 -6.51,-3.46"
         style="fill:#1e3e61;fill-opacity:1;fill-rule:nonzero;stroke:none"
         id="path232" /><path
         d="m 2486.3,2085.62 h -59.09 v 297.15 l 117.84,267.66 v -431.37 l -58.75,-133.44 m -61.59,0 h -128.33 l 128.33,291.47 v -291.47 m 122.84,139.12 v 431.37 l 405.52,921.07 c 57.3,-10.17 113.92,-25.98 169,-47.51 L 2547.55,2224.74"
         style="fill:#cfe0f4;fill-opacity:1;fill-rule:nonzero;stroke:none"
         id="path234" /><path
         d="m 2427.21,2085.62 h -2.5 v 291.47 l 2.5,5.68 v -297.15"
         style="fill:#bdd1ef;fill-opacity:1;fill-rule:nonzero;stroke:none"
         id="path236" /><path
         d="m 2545.05,2219.06 v 431.37 l 2.5,5.68 v -431.37 l -2.5,-5.68"
         style="fill:#bdd1ef;fill-opacity:1;fill-rule:nonzero;stroke:none"
         id="path238" /><path
         d="m 2038.44,2210.13 c -27.24,42.67 -50.61,87.28 -70.02,133.26 h 116.75 11.95 l -58.68,-133.26 m 76.88,174.62 v 894.53 c 87.82,102 193.87,179.58 309.39,231.82 v -423.65 l -309.39,-702.7 m 311.89,708.39 v 419.09 c 38.36,17.2 77.74,31.63 117.84,43.23 v -194.67 l -117.84,-267.65 m 120.34,273.33 v 189.71 c 30.61,8.76 61.64,15.88 92.92,21.35 l -92.92,-211.06"
         style="fill:#cfe0f4;fill-opacity:1;fill-rule:nonzero;stroke:none"
         id="path240" /><path
         d="m 2424.71,3087.45 v 423.65 c 0.82,0.37 1.67,0.76 2.5,1.13 v -419.09 l -2.5,-5.69"
         style="fill:#bdd1ef;fill-opacity:1;fill-rule:nonzero;stroke:none"
         id="path242" /><path
         d="m 2545.05,3360.79 v 194.67 c 0.84,0.24 1.66,0.48 2.5,0.72 v -189.71 l -2.5,-5.68"
         style="fill:#bdd1ef;fill-opacity:1;fill-rule:nonzero;stroke:none"
         id="path244" /><path
         d="m 2097.12,2343.39 h -11.95 v 898.95 c 5.06,6.54 10.24,13.05 15.51,19.49 4.83,5.9 9.7,11.7 14.64,17.45 v -894.53 l -18.2,-41.36"
         style="fill:#b8cceb;fill-opacity:1;fill-rule:nonzero;stroke:none"
         id="path246" /><path
         d="m 2085.17,2343.39 h -116.75 c -5.86,13.9 -11.35,27.89 -16.49,42.02 h 79.11 v 195.75 h 31.74 v 56.41 h -31.74 v 526.7 c 16.49,26.68 34.52,52.74 54.13,78.07 v -898.95"
         style="fill:#c6d8f2;fill-opacity:1;fill-rule:nonzero;stroke:none"
         id="path248" /><path
         d="m 2031.04,2385.41 h -79.11 c -23.09,63.44 -38.89,129.16 -47.26,195.75 h 126.37 v -195.75 m 0,252.16 h -131.66 c -11.25,180.61 31.75,365.02 131.66,526.7 v -526.7"
         style="fill:#caddf3;fill-opacity:1;fill-rule:nonzero;stroke:none"
         id="path250" /><path
         d="m 2062.78,2581.16 h -158.11 c -2.35,18.76 -4.12,37.54 -5.29,56.41 h 131.66 31.74 v -56.41"
         style="fill:#c6d8f2;fill-opacity:1;fill-rule:nonzero;stroke:none"
         id="path252" /><path
         d="M 2296.38,2085.62 H 2134.4 c -36.04,39.1 -68.03,80.77 -95.96,124.51 l 58.68,133.26 h 18.2 v 41.36 l 309.39,702.7 v -710.36 l -128.33,-291.47 m 130.83,297.15 v 710.37 l 117.84,267.65 v -710.36 l -117.84,-267.66 m 120.34,273.34 v 710.36 l 92.92,211.06 c 51.3,8.96 103.33,13.47 155.42,13.47 52.52,0 105.13,-4.58 157.18,-13.82 l -405.52,-921.07"
         style="fill:#d4e4f6;fill-opacity:1;fill-rule:nonzero;stroke:none"
         id="path254" /><path
         d="m 2424.71,2377.09 v 710.36 l 2.5,5.69 v -710.37 l -2.5,-5.68"
         style="fill:#c4d4f0;fill-opacity:1;fill-rule:nonzero;stroke:none"
         id="path256" /><path
         d="m 2545.05,2650.43 v 710.36 l 2.5,5.68 v -710.36 l -2.5,-5.68"
         style="fill:#c4d4f0;fill-opacity:1;fill-rule:nonzero;stroke:none"
         id="path258" /><path
         d="m 2115.32,2343.39 h -18.2 l 18.2,41.36 v -41.36"
         style="fill:#bfd2ed;fill-opacity:1;fill-rule:nonzero;stroke:none"
         id="path260" /><path
         d="m 2933.79,2085.62 h -386.24 v 139.12 l 574.52,1304.93 c 85.36,-33.37 167.04,-80.49 241.79,-141.66 34.36,-28.12 66.08,-58.24 95.16,-90.07 -3.27,-1.71 -6.53,-3.49 -9.74,-5.33 -35.81,-6.91 -82.21,-30.93 -102.31,-56.82 -26.87,-34.61 -19.13,-73.4 1.74,-93.34 -3.2,-3.03 -6.3,-6.89 -8.92,-11.79 -1.11,-2.08 -0.33,-4.68 1.76,-5.8 0.64,-0.34 1.33,-0.5 2.01,-0.5 0.39,0 0.78,0.05 1.15,0.16 1.09,0.3 2.06,1.02 2.63,2.1 1.25,2.31 2.61,4.34 4.04,6.11 -5.49,-32.21 -4.66,-66.68 0.31,-98.04 L 3083.9,2426.54 c -5.79,4.87 -11.54,9.83 -17.24,14.87 -19.66,17.16 -39.35,35.19 -58.25,53.1 l 0.05,8.25 -48.85,77.16 -71.61,25.52 -19.23,-74.66 63.13,-38.54 c 0,0 20.79,-21.8 45.96,-30.26 24.41,-33.56 50.43,-65.18 79.73,-95.19 l -123.8,-281.17 m -388.74,0 h -58.75 l 58.75,133.44 v -133.44"
         style="fill:#d4e4f6;fill-opacity:1;fill-rule:nonzero;stroke:none"
         id="path262" /><path
         d="m 2547.55,2085.62 h -2.5 v 133.44 l 2.5,5.68 v -139.12"
         style="fill:#c4d4f0;fill-opacity:1;fill-rule:nonzero;stroke:none"
         id="path264" /><path
         d="m 3057.59,2366.79 c -29.3,30.01 -55.32,61.63 -79.73,95.19 6.05,-2.03 12.36,-3.29 18.69,-3.29 3.89,0 7.79,0.48 11.65,1.55 l 0.21,34.27 c 18.9,-17.91 38.59,-35.94 58.25,-53.1 5.7,-5.04 11.45,-10 17.24,-14.87 l -26.31,-59.75"
         style="fill:#e7a9cb;fill-opacity:1;fill-rule:nonzero;stroke:none"
         id="path266" /><path
         d="m 2996.55,2458.69 c -6.33,0 -12.64,1.26 -18.69,3.29 -25.17,8.46 -45.96,30.26 -45.96,30.26 l 27.71,87.68 48.85,-77.16 -0.05,-8.25 -0.21,-34.27 c -3.86,-1.07 -7.76,-1.55 -11.65,-1.55"
         style="fill:#e7a9cb;fill-opacity:1;fill-rule:nonzero;stroke:none"
         id="path268" /><path
         d="m 2931.9,2492.24 -63.13,38.54 19.23,74.66 71.61,-25.52 -27.71,-87.68"
         style="fill:#e7a9cb;fill-opacity:1;fill-rule:nonzero;stroke:none"
         id="path270" /><path
         d="m 3348.71,3142.45 c -20.87,19.94 -28.61,58.73 -1.74,93.34 20.1,25.89 66.5,49.91 102.31,56.82 -52,-29.8 -95.65,-76.06 -90.82,-98.42 1.16,-5.35 3.85,-9.31 7.67,-12.11 -5.07,-11.05 -8.99,-22.89 -11.89,-35.2 -1.84,-1.24 -3.7,-2.7 -5.53,-4.43"
         style="fill:#335071;fill-opacity:1;fill-rule:nonzero;stroke:none"
         id="path272" /><path
         d="m 3351.69,3034.69 c -4.97,31.36 -5.8,65.83 -0.31,98.04 8.83,10.94 20.2,12.22 20.86,12.27 2.35,0.22 4.1,2.29 3.89,4.64 -0.19,2.24 -2.06,3.92 -4.26,3.92 -0.13,0 -0.25,-0.01 -0.37,-0.02 -0.53,-0.04 -8.58,-0.83 -17.26,-6.66 2.9,12.31 6.82,24.15 11.89,35.2 5.31,-3.88 12.8,-5.52 21.44,-5.52 8.7,0 18.56,1.66 28.51,4.37 l -35.54,-80.72 c -1.34,1.31 -2.89,2.12 -4.51,2.25 l -16.81,3.15 c 0,0 4.96,-6.17 10.55,-6.77 -1.64,-2.59 -2.48,-6.32 -2.1,-10.35 0.37,-3.77 1.73,-7.06 3.61,-9.3 l -19.59,-44.5"
         style="fill:#e7a9cb;fill-opacity:1;fill-rule:nonzero;stroke:none"
         id="path274" /><path
         d="m 3387.57,3176.56 c -8.64,0 -16.13,1.64 -21.44,5.52 -3.82,2.8 -6.51,6.76 -7.67,12.11 -4.83,22.36 38.82,68.62 90.82,98.42 3.21,1.84 6.47,3.62 9.74,5.33 1.92,-2.11 3.87,-4.27 5.77,-6.39 l -48.71,-110.62 c -9.95,-2.71 -19.81,-4.37 -28.51,-4.37"
         style="fill:#335071;fill-opacity:1;fill-rule:nonzero;stroke:none"
         id="path276" /><path
         d="m 3371.28,3079.19 c -1.88,2.24 -3.24,5.53 -3.61,9.3 -0.38,4.03 0.46,7.76 2.1,10.35 0.29,-0.03 0.58,-0.04 0.87,-0.04 2.19,0 4.44,0.92 6.5,3.45 l -1.11,0.21 c 1.62,-0.13 3.17,-0.94 4.51,-2.25 l -9.26,-21.02"
         style="fill:#335071;fill-opacity:1;fill-rule:nonzero;stroke:none"
         id="path278" /><path
         d="m 3370.64,3098.8 c -0.29,0 -0.58,0.01 -0.87,0.04 -5.59,0.6 -10.55,6.77 -10.55,6.77 l 16.81,-3.15 1.11,-0.21 c -2.06,-2.53 -4.31,-3.45 -6.5,-3.45"
         style="fill:#335071;fill-opacity:1;fill-rule:nonzero;stroke:none"
         id="path280" /><path
         d="m 3343.56,3124.36 c -0.68,0 -1.37,0.16 -2.01,0.5 -2.09,1.12 -2.87,3.72 -1.76,5.8 2.62,4.9 5.72,8.76 8.92,11.79 1.83,1.73 3.69,3.19 5.53,4.43 8.68,5.83 16.73,6.62 17.26,6.66 0.12,0.01 0.24,0.02 0.37,0.02 2.2,0 4.07,-1.68 4.26,-3.92 0.21,-2.35 -1.54,-4.42 -3.89,-4.64 -0.66,-0.05 -12.03,-1.33 -20.86,-12.27 -1.43,-1.77 -2.79,-3.8 -4.04,-6.11 -0.57,-1.08 -1.54,-1.8 -2.63,-2.1 -0.37,-0.11 -0.76,-0.16 -1.15,-0.16"
         style="fill:#335071;fill-opacity:1;fill-rule:nonzero;stroke:none"
         id="path282" /><path
         d="m 3490.04,2124.82 c 313.94,383.62 257.53,949.18 -126.18,1263.19 -383.7,314.01 -949.24,257.44 -1263.18,-126.18 -314.01,-383.7 -257.6,-949.26 126.1,-1263.27 383.71,-314.01 949.25,-257.44 1263.26,126.26 M 2038.83,3312.43 c 341.92,417.8 957.84,479.33 1375.64,137.41 417.8,-341.91 479.32,-957.84 137.4,-1375.64 -341.97,-417.87 -957.89,-479.39 -1375.69,-137.47 -417.8,341.91 -479.32,957.83 -137.35,1375.7"
         style="fill:#406fbf;fill-opacity:1;fill-rule:nonzero;stroke:none"
         id="path284" /><path
         d="m 3576.28,2128.23 c 96.29,-57.5 187.89,-120.72 277.91,-185.9 89.99,-65.19 177.7,-133.16 264.06,-202.8 86.37,-69.62 170.96,-141.42 252.66,-216.74 40.94,-37.55 80.98,-76.21 120.27,-115.78 39.18,-39.7 77.77,-80.13 114.03,-123.4 19.98,-23.83 16.85,-59.35 -6.99,-79.33 -18.22,-15.27 -43.37,-16.95 -63.08,-6.3 -49.59,26.99 -96.85,56.83 -143.52,87.37 -46.56,30.7 -92.37,62.3 -137.28,94.99 -89.99,65.2 -177.1,133.91 -262.43,204.81 -85.34,70.88 -169.33,143.41 -251.03,218.73 -81.69,75.34 -161.79,152.62 -237.19,235.64 -21.52,23.69 -19.76,60.33 3.92,81.85 19.33,17.56 47.35,19.57 68.67,6.86"
         style="fill:#406fbf;fill-opacity:1;fill-rule:nonzero;stroke:none"
         id="path286" /><path
         d="m 3683.87,2155.45 -96.58,-14.69 69.16,-60.6 c 0,0 54.58,19.8 59.96,57 l -32.54,18.29"
         style="fill:#f9a8b3;fill-opacity:1;fill-rule:nonzero;stroke:none"
         id="path288" /><path
         d="m 3535.14,2085.44 60.65,-47.6 74.11,48.37 -82.61,54.55 -52.15,-55.32"
         style="fill:#f9a8b3;fill-opacity:1;fill-rule:nonzero;stroke:none"
         id="path290" /><path
         d="m 3078.39,1980.13 c 17.29,48.73 65.86,83.26 117.09,83.26 h 800.49 c 60.73,0 104.25,-48.05 97.19,-107.33 L 3886.42,220.57 C 3879.36,161.289 3824.4,113.238 3763.67,113.238 H 1223.44 c -60.73,0 -104.24,48.051 -97.18,107.332 l 173.64,1457.75 c 7.07,59.28 62.03,107.33 122.76,107.33 h 1382.26 c 119.67,0 233.09,80.66 273.47,194.48"
         style="fill:#406fbf;fill-opacity:1;fill-rule:nonzero;stroke:none"
         id="path292" /><path
         d="M 1172.35,193.141 H 3826.37 L 3977.6,1978.95 H 1323.58 L 1172.35,193.141"
         style="fill:#ededeb;fill-opacity:1;fill-rule:nonzero;stroke:none"
         id="path294" /><path
         d="M 1172.35,193.141 H 3826.37 L 3935.8,1978.95 H 1323.58 L 1172.35,193.141"
         style="fill:#dadbd8;fill-opacity:1;fill-rule:nonzero;stroke:none"
         id="path296" /><path
         d="M 1172.35,193.141 H 3826.37 L 3917.6,2035.62 H 1263.58 L 1172.35,193.141"
         style="fill:#ededeb;fill-opacity:1;fill-rule:nonzero;stroke:none"
         id="path298" /><path
         d="m 1172.35,193.141 h 2654.02 l 36.1,1842.479 H 1263.58 L 1172.35,193.141"
         style="fill:#dadbd8;fill-opacity:1;fill-rule:nonzero;stroke:none"
         id="path300" /><path
         d="m 1172.35,193.141 h 2654.02 l 15.81,1892.479 H 1188.16 L 1172.35,193.141"
         style="fill:#ededeb;fill-opacity:1;fill-rule:nonzero;stroke:none"
         id="path302" /><path
         d="M 1172.35,193.141 H 3826.37 L 3771.91,2049.78 H 1134.97 l 37.38,-1856.639"
         style="fill:#dadbd8;fill-opacity:1;fill-rule:nonzero;stroke:none"
         id="path304" /><path
         d="M 1172.35,193.141 H 3826.37 L 3747.6,2035.62 H 1093.58 l 78.77,-1842.479"
         style="fill:#ededeb;fill-opacity:1;fill-rule:nonzero;stroke:none"
         id="path306" /><path
         d="M 1172.35,193.141 H 3826.37 L 3700.93,2007.84 H 1046.91 L 1172.35,193.141"
         style="fill:#dadbd8;fill-opacity:1;fill-rule:nonzero;stroke:none"
         id="path308" /><path
         d="M 1172.35,193.141 H 3826.37 L 3680.93,1992.28 H 1026.91 L 1172.35,193.141"
         style="fill:#ededeb;fill-opacity:1;fill-rule:nonzero;stroke:none"
         id="path310" /><path
         d="m 2501.4,1867.43 v 0 c 1.73,49.94 39.27,85.32 90.51,85.32 h 800.48 c 60.74,0 119.59,-49.24 131.45,-109.97 L 3840.08,223.211 c 11.86,-60.742 -27.76,-109.973 -88.5,-109.973 H 1211.36 c -60.74,0 -119.59,49.231 -131.45,109.973 L 819.238,1558.2 c -11.859,60.74 27.762,109.97 88.5,109.97 H 2290 c 119.66,0 207.34,82.64 211.4,199.26"
         style="fill:#406fbf;fill-opacity:1;fill-rule:nonzero;stroke:none"
         id="path312" /><path
         d="M 3751.58,113.238 H 1211.36 c -60.74,0 -119.59,49.231 -131.45,109.973 L 819.238,1558.2 c -1.414,7.24 -2.093,14.31 -2.097,21.16 -0.02,50.61 37.097,88.81 90.597,88.81 H 2290 c 119.66,0 207.34,82.64 211.4,199.26 v 0 c 1.73,49.94 39.27,85.32 90.51,85.32 h 800.48 c 60.74,0 119.59,-49.24 131.45,-109.97 L 3840.08,223.211 c 1.41,-7.242 2.1,-14.313 2.1,-21.16 0.02,-50.61 -37.1,-88.813 -90.6,-88.813 v 0"
         style="fill:#3563b7;fill-opacity:1;fill-rule:nonzero;stroke:none"
         id="path314" /></g></g></svg>
