<svg height="512" viewBox="0 0 512 512" width="512" xmlns="http://www.w3.org/2000/svg"><g id="Filled_outline" data-name="Filled outline"><circle cx="256" cy="256" fill="#a45bad" r="232"/><circle cx="256" cy="256" fill="#a961b2" r="136"/><path d="m256 24c-128.13 0-232 103.87-232 232s103.87 232 232 232 232-103.87 232-232-103.87-232-232-232zm0 384a152 152 0 1 1 152-152 152 152 0 0 1 -152 152z" fill="#5f4bbc"/><path d="m248 208-2.366-7.1a36.424 36.424 0 0 1 4.248-31.724 36.43 36.43 0 0 0 6.118-20.205v-12.971l11.625 23.249a19.571 19.571 0 0 1 0 17.5 19.566 19.566 0 0 0 -1.062 14.938l5.437 16.313z" fill="#bc70c4"/><path d="m264 304 2.366 7.1a36.424 36.424 0 0 1 -4.248 31.724 36.43 36.43 0 0 0 -6.118 20.205v12.971l-11.625-23.249a19.571 19.571 0 0 1 0-17.5 19.566 19.566 0 0 0 1.062-14.938l-5.437-16.313z" fill="#bc70c4"/><path d="m227.716 295.6-3.347 6.693a36.424 36.424 0 0 1 -25.436 19.428 36.433 36.433 0 0 0 -18.614 9.962l-9.172 9.172 8.22-24.66a19.567 19.567 0 0 1 12.375-12.375 19.567 19.567 0 0 0 11.314-9.812l7.689-15.379z" fill="#bc70c4"/><path d="m284.284 216.4 3.347-6.693a36.424 36.424 0 0 1 25.436-19.428 36.433 36.433 0 0 0 18.614-9.962l9.172-9.172-8.22 24.66a19.567 19.567 0 0 1 -12.375 12.375 19.567 19.567 0 0 0 -11.314 9.812l-7.689 15.379z" fill="#bc70c4"/><path d="m295.6 284.284 6.693 3.347a36.424 36.424 0 0 1 19.428 25.436 36.433 36.433 0 0 0 9.962 18.614l9.172 9.172-24.66-8.22a19.567 19.567 0 0 1 -12.375-12.375 19.567 19.567 0 0 0 -9.812-11.314l-15.379-7.689z" fill="#bc70c4"/><path d="m216.4 227.716-6.693-3.347a36.424 36.424 0 0 1 -19.428-25.436 36.433 36.433 0 0 0 -9.962-18.614l-9.172-9.172 24.66 8.22a19.567 19.567 0 0 1 12.375 12.375 19.567 19.567 0 0 0 9.812 11.314l15.379 7.689z" fill="#bc70c4"/><path d="m208 264-7.1 2.366a36.424 36.424 0 0 1 -31.724-4.248 36.43 36.43 0 0 0 -20.205-6.118h-12.971l23.249-11.625a19.571 19.571 0 0 1 17.5 0 19.566 19.566 0 0 0 14.938 1.062l16.313-5.437z" fill="#bc70c4"/><path d="m304 248 7.1-2.366a36.424 36.424 0 0 1 31.724 4.248 36.43 36.43 0 0 0 20.205 6.118h12.971l-23.249 11.625a19.571 19.571 0 0 1 -17.5 0 19.566 19.566 0 0 0 -14.938-1.062l-16.313 5.437z" fill="#bc70c4"/><circle cx="256" cy="256" fill="#cb84d3" r="56"/><g fill="#362684"><path d="m291.605 80a8 8 0 0 0 13.7 4.746l13.1-13.49a8 8 0 0 0 -3.205-13.168l-15.031-5.011a8 8 0 0 0 -10.49 8.423z"/><circle cx="389.667" cy="121" r="16"/><rect height="32" rx="8" width="32" x="424" y="192"/><ellipse cx="442.5" cy="305.5" rx="18.195" ry="16"/><ellipse cx="392.333" cy="391" rx="16" ry="18.195"/><path d="m302.334 423.332a18.354 18.354 0 0 0 -18.334 18.334v11.666a8 8 0 0 0 8 8h20.666a8 8 0 0 0 8-8v-11.666a18.354 18.354 0 0 0 -18.332-18.334zm2.333 22h-4.667v-3.666a2.333 2.333 0 1 1 4.666 0z"/><path d="m222.5 436a15.667 15.667 0 1 0 -30.379 5.331h-5.287v16h40v-16h-5.288a15.561 15.561 0 0 0 .954-5.331z"/><path d="m118.667 371.333a18.355 18.355 0 0 0 -18.334 18.334v11.666a8 8 0 0 0 8 8h20.667a8 8 0 0 0 8-8v-11.666a18.355 18.355 0 0 0 -18.333-18.334zm2.333 22h-4.667v-3.666a2.334 2.334 0 1 1 4.667 0z"/><path d="m58 225.667h20.667a8 8 0 0 0 8-8v-11.667a18.334 18.334 0 0 0 -36.667 0v11.667a8 8 0 0 0 8 8zm8-19.667a2.334 2.334 0 0 1 4.667 0v3.667h-4.667z"/><path d="m80 280h-16v16h.176l-12.951 17.59 12.884 9.487 14.046-19.077h9.845v-16a8 8 0 0 0 -8-8z"/><rect height="24" rx="8" width="40" x="99.333" y="108"/><path d="m190.438 80.441-.186.38a8 8 0 0 0 7.188 11.512h15.893a8 8 0 0 0 7.243-11.4l-.342-.731a16.9 16.9 0 0 1 .12-14.685l.166-.339a8 8 0 0 0 -7.187-11.516h-15.893a8 8 0 0 0 -7.13 11.627 17.071 17.071 0 0 1 .128 15.152z"/></g><path d="m240 272h32v16h-32z" fill="#9d52a5"/><path d="m256 264h-16v-19.948a7.685 7.685 0 0 0 -6.541.163l-5.881 2.94-7.156-14.31 5.878-2.945a23.669 23.669 0 0 1 27.354 4.439 8 8 0 0 1 2.346 5.661z" fill="#9d52a5"/><path d="m272 232h16v16h-16z" fill="#9d52a5"/><path d="m425.705 86.294a240.087 240.087 0 0 0 -295.84-34.513l-.8.469 40.136 69.4a161.277 161.277 0 0 0 -47.547 47.55l-55.521-32.057a226.244 226.244 0 0 1 59.787-63.524l-9.3-13.019a239.708 239.708 0 0 0 -100.62 195.4 240 240 0 0 0 409.705 169.706 240 240 0 0 0 0-339.412zm-9.905 177.706h64.044a222.5 222.5 0 0 1 -25.889 97.052l-55.582-32.091a158.855 158.855 0 0 0 17.427-64.961zm0-16a158.855 158.855 0 0 0 -17.427-64.961l55.582-32.091a222.5 222.5 0 0 1 25.889 97.052zm30.129-110.893-55.583 32.093a161.277 161.277 0 0 0 -47.546-47.546l32.091-55.583a226.888 226.888 0 0 1 71.036 71.036zm-181.929-104.951a222.509 222.509 0 0 1 97.052 25.889l-32.09 55.582a158.86 158.86 0 0 0 -64.962-17.427zm-113.019 25.944a223.518 223.518 0 0 1 97.019-25.957v64.057a158.86 158.86 0 0 0 -64.962 17.427zm105.019 53.9c79.4 0 144 64.6 144 144s-64.6 144-144 144-144-64.6-144-144 64.6-144 144-144zm-8 303.8v64.044a222.509 222.509 0 0 1 -97.052-25.889l32.09-55.582a158.86 158.86 0 0 0 64.962 17.427zm16 0a158.86 158.86 0 0 0 64.962-17.427l32.09 55.582a222.509 222.509 0 0 1 -97.052 25.889zm-167.8-151.8a158.855 158.855 0 0 0 17.427 64.961l-55.582 32.091a222.5 222.5 0 0 1 -25.889-97.052zm-38.568-112.15c.153-.292.318-.577.472-.867l55.523 32.056a158.855 158.855 0 0 0 -17.427 64.961h-64.041a224.374 224.374 0 0 1 25.473-96.15zm8.439 223.043 55.583-32.093a161.277 161.277 0 0 0 47.546 47.546l-32.091 55.583a226.888 226.888 0 0 1 -71.036-71.036zm348.321 39.5a225.851 225.851 0 0 1 -39.5 31.537l-32.092-55.584a161.277 161.277 0 0 0 47.546-47.546l55.583 32.091a225.777 225.777 0 0 1 -31.537 39.501z"/><path d="m128.214 257.837a8 8 0 0 0 7.786 6.163h12.97a28.327 28.327 0 0 1 8.216 1.212 28.658 28.658 0 0 1 7.558 3.566 44.26 44.26 0 0 0 21.665 7.383l-44.341 18.368 6.123 14.782 48.271-20-.559 1.12a11.541 11.541 0 0 1 -6.7 5.8 27.675 27.675 0 0 0 -17.423 17.429l-8.219 24.66a8 8 0 0 0 13.247 8.187l9.17-9.17a28.387 28.387 0 0 1 6.695-4.968 28.061 28.061 0 0 1 7.829-2.805 44.288 44.288 0 0 0 20.571-10.133l-18.384 44.378 14.782 6.123 19.991-48.259.389 1.167a11.634 11.634 0 0 1 -.624 8.827 27.663 27.663 0 0 0 0 24.66l11.62 23.25a8 8 0 0 0 15.153-3.577v-12.97a28.344 28.344 0 0 1 1.212-8.217 28.694 28.694 0 0 1 3.565-7.557 44.228 44.228 0 0 0 7.377-21.683l18.375 44.359 14.782-6.123-20-48.272 1.118.558a11.541 11.541 0 0 1 5.8 6.7 27.672 27.672 0 0 0 17.429 17.427l24.659 8.22a8 8 0 0 0 8.188-13.246l-9.17-9.17a28.374 28.374 0 0 1 -4.969-6.7 28.077 28.077 0 0 1 -2.805-7.827 44.286 44.286 0 0 0 -10.131-20.57l44.377 18.383 6.123-14.782-48.259-19.991 1.165-.388a11.768 11.768 0 0 1 8.829.623 27.664 27.664 0 0 0 24.659 0l23.25-11.62a8 8 0 0 0 -3.574-15.154h-12.97a28.327 28.327 0 0 1 -8.216-1.212 28.658 28.658 0 0 1 -7.558-3.566 44.262 44.262 0 0 0 -21.678-7.378l44.354-18.373-6.123-14.782-48.271 20 .559-1.12a11.541 11.541 0 0 1 6.7-5.8 27.675 27.675 0 0 0 17.423-17.429l8.219-24.66a8 8 0 0 0 -13.247-8.187l-9.17 9.17a28.387 28.387 0 0 1 -6.695 4.968 28.061 28.061 0 0 1 -7.829 2.805 44.288 44.288 0 0 0 -20.571 10.133l18.384-44.378-14.782-6.123-19.991 48.259-.389-1.167a11.634 11.634 0 0 1 .624-8.827 27.663 27.663 0 0 0 0-24.66l-11.62-23.25a8 8 0 0 0 -15.153 3.577v12.97a28.344 28.344 0 0 1 -1.212 8.217 28.694 28.694 0 0 1 -3.565 7.557 44.228 44.228 0 0 0 -7.377 21.683l-18.375-44.359-14.782 6.123 20 48.272-1.118-.558a11.541 11.541 0 0 1 -5.8-6.7 27.672 27.672 0 0 0 -17.429-17.427l-24.659-8.22a8 8 0 0 0 -8.188 13.246l9.17 9.17a28.374 28.374 0 0 1 4.969 6.7 28.077 28.077 0 0 1 2.805 7.827 44.286 44.286 0 0 0 10.131 20.57l-44.377-18.383-6.123 14.782 48.259 19.991-1.165.388a11.768 11.768 0 0 1 -8.829-.623 27.661 27.661 0 0 0 -24.659 0l-23.25 11.62a8 8 0 0 0 -4.212 8.991zm175.786-1.837a48 48 0 1 1 -48-48 48.054 48.054 0 0 1 48 48zm-106.626 57.873a44.006 44.006 0 0 0 -9.675 3.114 11.624 11.624 0 0 1 6.571-5.577 27.382 27.382 0 0 0 14.86-11.892q2.2 2.372 4.641 4.513a28.246 28.246 0 0 1 -16.397 9.842zm58.09 24.509a44.5 44.5 0 0 0 -4.631 9.043 11.6 11.6 0 0 1 .7-8.6 27.629 27.629 0 0 0 2.116-18.888c.781.029 1.561.06 2.349.06 1.375 0 2.735-.059 4.088-.144a28.653 28.653 0 0 1 -4.622 18.529zm55.945-20.653a27.373 27.373 0 0 0 -11.892-14.859 64.607 64.607 0 0 0 4.514-4.641 28.246 28.246 0 0 1 9.842 16.4 44 44 0 0 0 3.113 9.675 11.626 11.626 0 0 1 -5.577-6.575zm36.017-56.562a11.608 11.608 0 0 1 -8.6-.7 27.976 27.976 0 0 0 -18.888-2.106c.029-.784.06-1.568.06-2.359 0-1.375-.059-2.735-.145-4.088a28.653 28.653 0 0 1 18.528 4.624 44.472 44.472 0 0 0 9.045 4.629zm-32.8-63.04a44.006 44.006 0 0 0 9.675-3.114 11.624 11.624 0 0 1 -6.571 5.577 27.382 27.382 0 0 0 -14.86 11.892q-2.205-2.371-4.641-4.513a28.246 28.246 0 0 1 16.397-9.842zm-58.09-24.509a44.5 44.5 0 0 0 4.631-9.043 11.6 11.6 0 0 1 -.7 8.6 27.629 27.629 0 0 0 -2.116 18.888c-.781-.029-1.561-.06-2.349-.06-1.375 0-2.735.059-4.088.144a28.653 28.653 0 0 1 4.622-18.529zm-55.945 20.653a27.373 27.373 0 0 0 11.892 14.859 64.607 64.607 0 0 0 -4.514 4.641 28.246 28.246 0 0 1 -9.842-16.4 44 44 0 0 0 -3.113-9.675 11.626 11.626 0 0 1 5.577 6.575zm-27.419 57.264a27.981 27.981 0 0 0 18.888 2.1c-.029.785-.06 1.569-.06 2.36 0 1.374.059 2.735.145 4.088a28.659 28.659 0 0 1 -18.528-4.624 44.472 44.472 0 0 0 -9.043-4.631 11.611 11.611 0 0 1 8.598.707z"/><path d="m240 272h32v16h-32z"/><path d="m240 264h16v-24a8 8 0 0 0 -2.343-5.657 23.669 23.669 0 0 0 -27.357-4.443l-5.881 2.941 7.156 14.31 5.881-2.94a7.685 7.685 0 0 1 6.541-.163z"/><path d="m272 232h16v16h-16z"/><path d="m320.439 63.783a8 8 0 0 0 -5.242-5.695l-15.031-5.011a8 8 0 0 0 -10.487 8.423l1.926 18.5a8 8 0 0 0 13.7 4.746l13.1-13.49a8 8 0 0 0 2.034-7.473z"/><circle cx="389.667" cy="121" r="16"/><rect height="32" rx="8" width="32" x="424" y="192"/><ellipse cx="442.5" cy="305.5" rx="18.195" ry="16"/><ellipse cx="392.333" cy="391" rx="16" ry="18.195"/><path d="m302.334 423.332a18.354 18.354 0 0 0 -18.334 18.334v11.666a8 8 0 0 0 8 8h20.666a8 8 0 0 0 8-8v-11.666a18.354 18.354 0 0 0 -18.332-18.334zm2.333 22h-4.667v-3.666a2.333 2.333 0 1 1 4.666 0z"/><path d="m186.835 457.331h40v-16h-5.288a15.667 15.667 0 1 0 -29.425 0h-5.287z"/><path d="m118.667 371.333a18.355 18.355 0 0 0 -18.334 18.334v11.666a8 8 0 0 0 8 8h20.667a8 8 0 0 0 8-8v-11.666a18.355 18.355 0 0 0 -18.333-18.334zm2.333 22h-4.667v-3.666a2.334 2.334 0 1 1 4.667 0z"/><path d="m58 225.667h20.667a8 8 0 0 0 8-8v-11.667a18.334 18.334 0 0 0 -36.667 0v11.667a8 8 0 0 0 8 8zm8-19.667a2.334 2.334 0 0 1 4.667 0v3.667h-4.667z"/><path d="m51.225 313.59 12.884 9.487 14.046-19.077h9.845v-16a8 8 0 0 0 -8-8h-16v16h.176z"/><rect height="24" rx="8" width="40" x="99.333" y="108"/><path d="m220.234 80.206a16.9 16.9 0 0 1 .12-14.685l.166-.339a8 8 0 0 0 -7.187-11.516h-15.893a8 8 0 0 0 -7.13 11.627 17.071 17.071 0 0 1 .128 15.148l-.186.38a8 8 0 0 0 7.188 11.512h15.893a8 8 0 0 0 7.243-11.4z"/></g></svg>